<?xml version="1.0" encoding="UTF-8"?>
<svg version="1.1" xmlns="http://www.w3.org/2000/svg" width="512" height="512">
<path d="M0 0 C0.70640625 -0.03738281 1.4128125 -0.07476562 2.140625 -0.11328125 C9.3955005 1.07052328 14.38736151 5.41159658 19.25 10.625 C20.37544374 11.79635043 21.50303721 12.96563932 22.6328125 14.1328125 C23.1680957 14.68743164 23.70337891 15.24205078 24.25488281 15.81347656 C26.11055927 17.67400129 28.0871757 19.34278101 30.125 21 C37.41816012 27.22925304 43.07151482 35.72271264 44.0625 45.34765625 C44.47466163 56.36009981 41.9335765 63.34165467 34.5 71.4375 C32.93008888 73.07547085 31.35124322 74.70514516 29.75 76.3125 C31.07289548 79.25358436 32.49256099 81.28889193 34.8034668 83.52954102 C35.73034554 84.43682701 35.73034554 84.43682701 36.6759491 85.36244202 C37.34362808 86.00725021 38.01130707 86.65205841 38.69921875 87.31640625 C40.11942827 88.71129574 41.53934042 90.10648804 42.95898438 91.50195312 C45.18865036 93.68229346 47.42133724 95.85932374 49.65991211 98.03051758 C72.33163108 120.06246134 72.33163108 120.06246134 72.84375 132.609375 C72.38520117 144.91376864 63.57092131 153.10895913 55.25 161.25 C54.32574219 162.18134766 53.40148437 163.11269531 52.44921875 164.07226562 C46.14738875 170.31549491 40.96705429 174.84383622 31.75 175.3125 C17.06205817 174.79184535 4.24328629 155.91977812 -5.375 146.25 C-7.01539085 144.60458424 -8.65601395 142.95939999 -10.296875 141.31445312 C-14.28393258 137.31646822 -18.26810994 133.3156313 -22.25 129.3125 C-27.65306025 133.87400379 -27.65306025 133.87400379 -32.77734375 138.7421875 C-33.34130859 139.309375 -33.90527344 139.8765625 -34.48632812 140.4609375 C-35.04771484 141.03070313 -35.60910156 141.60046875 -36.1875 142.1875 C-36.77595703 142.78046875 -37.36441406 143.3734375 -37.97070312 143.984375 C-39.39947674 145.42476466 -40.82508132 146.8682967 -42.25 148.3125 C-37.96276417 153.45312122 -33.44997657 158.1958774 -28.65625 162.86328125 C-27.19877104 164.29837357 -25.74175395 165.73393509 -24.28515625 167.16992188 C-22.01878439 169.39928074 -19.74957309 171.62541579 -17.47216797 173.84350586 C-15.25329732 176.0074207 -13.04774323 178.18422821 -10.84375 180.36328125 C-10.17170532 181.01154373 -9.49966064 181.65980621 -8.80725098 182.32771301 C-2.93407061 188.16854455 2.87606695 194.86676701 3.375 203.4375 C2.64997681 213.34100827 -3.62979073 219.47925918 -10.25 226.3125 C-10.8982373 226.99183594 -11.54647461 227.67117188 -12.21435547 228.37109375 C-14.42121829 230.67738281 -16.64547637 232.96562243 -18.875 235.25 C-19.59131592 235.99628662 -20.30763184 236.74257324 -21.0456543 237.51147461 C-25.92301215 242.44054583 -29.84486327 245.57498842 -36.83984375 246.74609375 C-38.00193359 246.74802734 -38.00193359 246.74802734 -39.1875 246.75 C-39.95964844 246.76933594 -40.73179687 246.78867187 -41.52734375 246.80859375 C-50.42203209 245.18789731 -55.93616221 239.16329092 -62 232.953125 C-62.89871826 232.04874695 -63.79743652 231.1443689 -64.72338867 230.21258545 C-67.0914307 227.82603826 -69.45041369 225.4312247 -71.80535889 223.03179932 C-74.2183048 220.57766746 -76.64285562 218.13505806 -79.06640625 215.69140625 C-83.80494912 210.90889987 -88.53187067 206.11514172 -93.25 201.3125 C-97.28863901 202.942229 -100.08675211 205.79095157 -103.15185547 208.78100586 C-104.0207415 209.6181311 -104.0207415 209.6181311 -104.90718079 210.47216797 C-110.93491273 216.29536361 -116.90455519 222.17890177 -122.86914062 228.06665039 C-125.70013204 230.85750264 -128.54823364 233.62893486 -131.41308594 236.38500977 C-134.87666629 239.71730324 -138.3072359 243.08044427 -141.71677017 246.46798897 C-143.01911732 247.75138557 -144.33257543 249.02360953 -145.65716171 250.28404045 C-153.02875317 256.79318599 -153.02875317 256.79318599 -156.60868835 265.47883606 C-156.11497071 268.31738562 -155.36346171 270.66409131 -154.25 273.3125 C-153.90564742 274.66760124 -153.58206208 276.0282498 -153.28515625 277.39453125 C-152.80369141 279.24111328 -152.80369141 279.24111328 -152.3125 281.125 C-146.77202493 302.82454466 -146.77202493 302.82454466 -146.25 313.3125 C-146.17072266 314.82650391 -146.17072266 314.82650391 -146.08984375 316.37109375 C-145.37461188 343.27003138 -154.04009113 371.19145218 -172.25 391.3125 C-172.91128906 392.11429687 -173.57257813 392.91609375 -174.25390625 393.7421875 C-192.52097408 415.33971521 -219.32999837 427.72070263 -247.25 430.3125 C-276.25922984 431.9501689 -304.96780558 424.64619988 -327.25 405.3125 C-328.04535156 404.64863281 -328.84070313 403.98476563 -329.66015625 403.30078125 C-351.64765338 384.37182314 -361.11030539 360.79862017 -367.57275391 333.18310547 C-368.18784594 330.57594897 -368.82739492 327.97676013 -369.48046875 325.37890625 C-371.38934464 317.71672844 -372.95303387 310.23159669 -373.25 302.3125 C-373.3015625 301.52875 -373.353125 300.745 -373.40625 299.9375 C-374.48298168 271.22465521 -363.15183302 242.83364518 -344.02734375 221.6796875 C-323.92084843 200.28888189 -296.48044381 187.99831391 -267.23046875 186.4140625 C-249.7689545 185.96852828 -233.52050038 189.0675965 -217.484375 195.9453125 C-214.44041336 197.23201126 -211.38917391 198.2863791 -208.25 199.3125 C-207.83928452 198.90102508 -207.42856904 198.48955016 -207.00540763 198.0656063 C-182.66926925 173.68472313 -158.32792116 149.30905378 -133.97978394 124.94015328 C-131.0570412 122.0149091 -128.13434209 119.08962134 -125.21166992 116.16430664 C-124.62981159 115.58192369 -124.04795327 114.99954074 -123.44846287 114.39950982 C-114.02408575 104.96642732 -104.60324739 95.52981825 -95.18370942 86.09190383 C-85.520132 76.40963108 -75.85276763 66.73115168 -66.18186873 57.05619174 C-60.21332569 51.08490288 -54.24776504 45.11066606 -48.28597137 39.13263843 C-44.19886439 35.03496912 -40.10808869 30.94098636 -36.0143976 26.84989484 C-33.65178152 24.48856122 -31.2913968 22.12510505 -28.93423271 19.75832176 C-26.37881581 17.19298687 -23.81733977 14.63385963 -21.25422668 12.07621765 C-20.51005597 11.32622126 -19.76588526 10.57622486 -18.99916393 9.80350131 C-13.20078555 4.03862427 -8.37471793 0.2861864 0 0 Z M-304.12109375 277.75390625 C-314.59542797 290.34232628 -320.46199244 305.18767718 -319.8515625 321.62109375 C-318.02261909 332.84415556 -308.32327972 341.68309064 -299.62109375 348.31640625 C-285.07990536 358.11636291 -268.59477191 362.12964448 -251.25 359.3125 C-241.19324188 357.1287047 -232.51130689 353.55918377 -224.25 347.3125 C-223.53457031 346.77882813 -222.81914062 346.24515625 -222.08203125 345.6953125 C-208.87254965 335.0153061 -201.54121346 318.98905334 -199.375 302.4375 C-198.72377832 292.65688757 -202.86366763 285.95395835 -209.07421875 278.6875 C-220.31250076 266.4202191 -235.49037855 257.97665414 -252.34765625 257.0390625 C-272.04154131 256.37856328 -290.43655257 263.23703162 -304.12109375 277.75390625 Z " fill="#FBCB00" transform="translate(406.25,40.6875)"/>
<path d="M0 0 C2.35920203 3.53880304 3.13437135 6.98146375 4.0625 11.0625 C4.2387793 11.83182861 4.41505859 12.60115723 4.59667969 13.39379883 C5.83044399 18.92766318 6.78579675 24.32361382 7 30 C7.0515625 31.00546875 7.103125 32.0109375 7.15625 33.046875 C7.89983541 59.93988061 -0.79852867 87.88827525 -19 108 C-19.66128906 108.80179687 -20.32257813 109.60359375 -21.00390625 110.4296875 C-39.27097408 132.02721521 -66.07999837 144.40820263 -94 147 C-123.00922984 148.6376689 -151.71780558 141.33369988 -174 122 C-175.19302734 121.00419922 -175.19302734 121.00419922 -176.41015625 119.98828125 C-194.30939664 104.57888883 -207.40650341 83.32082882 -212 60 C-212.1875 56.3125 -212.1875 56.3125 -212 54 C-209.27873531 56.72126469 -208.00558416 60.0041118 -206.375 63.4375 C-197.95191856 80.63246852 -185.56304719 94.07442647 -170 105 C-169.2265625 105.55171875 -168.453125 106.1034375 -167.65625 106.671875 C-143.70302248 122.35955218 -113.15430772 126.26595269 -85.51611328 120.58642578 C-66.99291959 116.26925993 -50.03754489 107.86951921 -36 95 C-34.61361328 93.73542969 -34.61361328 93.73542969 -33.19921875 92.4453125 C-10.97693687 71.23732564 -1.1310383 43.42852889 -0.375 13.25 C-0.31699219 11.32800781 -0.31699219 11.32800781 -0.2578125 9.3671875 C-0.16461064 6.2449253 -0.0788031 3.12265307 0 0 Z " fill="#FD7D00" transform="translate(253,324)"/>
<path d="M0 0 C3.78252777 3.19272072 7.51066333 6.37817461 10.97241211 9.92236328 C12.01400734 10.98343796 12.01400734 10.98343796 13.0766449 12.06594849 C13.80287552 12.80988861 14.52910614 13.55382874 15.27734375 14.3203125 C16.85827429 15.9236206 18.43966862 17.52647149 20.02148438 19.12890625 C22.48580883 21.6303418 24.94692105 24.13464801 27.40014648 26.64697266 C29.7875116 29.08900297 32.18753975 31.51798826 34.58984375 33.9453125 C35.31405014 34.69330109 36.03825653 35.44128967 36.78440857 36.21194458 C41.99787142 41.45178918 46.92054917 45.49006865 54.5 46.4375 C64.1880276 45.22649655 69.1847381 40.64849366 76 34 C76.67675781 33.37351563 77.35351562 32.74703125 78.05078125 32.1015625 C82.51070842 27.88038946 87.6739961 22.21530625 88.16796875 15.828125 C88.20604129 10.80255017 87.98447723 6.71313343 86 2 C102.0700558 15.1184129 102.0700558 15.1184129 103.3125 24.3125 C103.73139885 32.89992646 100.84327342 38.08139799 95.3125 44.4375 C93.55605563 46.30792329 91.78513386 48.15742236 90 50 C89.3517627 50.67933594 88.70352539 51.35867188 88.03564453 52.05859375 C85.82878171 54.36488281 83.60452363 56.65312243 81.375 58.9375 C80.30052612 60.05692993 80.30052612 60.05692993 79.2043457 61.19897461 C74.32698785 66.12804583 70.40513673 69.26248842 63.41015625 70.43359375 C62.24806641 70.43552734 62.24806641 70.43552734 61.0625 70.4375 C60.29035156 70.45683594 59.51820313 70.47617187 58.72265625 70.49609375 C49.82796791 68.87539731 44.31383779 62.85079092 38.25 56.640625 C37.35128174 55.73624695 36.45256348 54.8318689 35.52661133 53.90008545 C33.1585693 51.51353826 30.79958631 49.1187247 28.44464111 46.71929932 C26.0316952 44.26516746 23.60714438 41.82255806 21.18359375 39.37890625 C16.44505088 34.59639987 11.71812933 29.80264172 7 25 C2.86374991 26.63065645 0.10043401 29.63223452 -2.96191406 32.73486328 C-3.5477124 33.32036957 -4.13351074 33.90587585 -4.73706055 34.50912476 C-6.66802839 36.44148356 -8.59181947 38.38082516 -10.515625 40.3203125 C-11.85468611 41.66310456 -13.19419009 43.00545513 -14.53411865 44.34738159 C-18.05664429 47.87753717 -21.57312203 51.41365806 -25.08837891 54.9510498 C-28.67768551 58.56082851 -32.27267256 62.16494015 -35.8671875 65.76953125 C-42.91703318 72.84081558 -49.96050337 79.91841413 -57 87 C-59.43970898 84.56029102 -60.21755865 82.32328361 -61.5 79.125 C-63.17193274 74.90585709 -63.17193274 74.90585709 -65.21875 70.8671875 C-66.23143586 68.44686829 -65.84329018 67.45376957 -65 65 C-63.02842155 62.7535763 -61.04699621 60.66844456 -58.91967773 58.57910156 C-58.28554962 57.94453537 -57.65142151 57.30996918 -56.99807739 56.65617371 C-54.90028206 54.56046839 -52.79206052 52.47558904 -50.68359375 50.390625 C-49.2270543 48.93968071 -47.77117578 47.48807267 -46.31593323 46.03582764 C-42.48380855 42.21515785 -38.64276013 38.40358258 -34.79980469 34.59381104 C-30.88000326 30.70469635 -26.96867956 26.80707635 -23.05664062 22.91015625 C-15.37938251 15.2650737 -7.69267333 7.62956898 0 0 Z " fill="#FD7D00" transform="translate(306,217)"/>
<path d="M0 0 C1 1 1 1 1.21484375 3.73828125 C0.0125947 21.99060772 -24.51762511 40.69294791 -36.92602539 53.05639648 C-38.69991003 54.82487219 -40.46831777 56.59870044 -42.23632812 58.37304688 C-43.39030421 59.52636273 -44.54459015 60.67936865 -45.69921875 61.83203125 C-46.21401291 62.34884964 -46.72880707 62.86566803 -47.25920105 63.39814758 C-50.05276056 66.17425101 -52.91540922 68.82028977 -55.89770508 71.39331055 C-60.10337606 75.03868433 -64.02746779 78.91706327 -67.9375 82.875 C-68.66187256 83.60315918 -69.38624512 84.33131836 -70.13256836 85.08154297 C-72.42418303 87.38525646 -74.71250652 89.69219474 -77 92 C-80.01785081 95.04464779 -83.03913416 98.08582967 -86.0625 101.125 C-87.07848267 102.15343018 -87.07848267 102.15343018 -88.11499023 103.20263672 C-92.00745521 107.11475335 -96.0156208 110.81454926 -100.1940918 114.41894531 C-102.52104084 116.45616608 -104.70547407 118.60919253 -106.875 120.8125 C-108.13570313 122.08480469 -108.13570313 122.08480469 -109.421875 123.3828125 C-110.27265625 124.24648437 -111.1234375 125.11015625 -112 126 C-117.25238044 131.33196197 -122.5121683 136.54507201 -128.1953125 141.41796875 C-130.93096103 143.8161022 -133.4612597 146.39700417 -136 149 C-158.39785852 171.61163874 -158.39785852 171.61163874 -168.1875 172.1875 C-171 172 -171 172 -172 171 C-172 162.87078741 -166.98340308 158.07409854 -161.55859375 152.484375 C-159.84891352 150.78252537 -158.13139393 149.08851606 -156.40625 147.40234375 C-154.33299209 145.33245152 -152.3999965 143.22711853 -150.5 141 C-147.80388859 137.84605835 -144.95183025 134.91626603 -142 132 C-139.06881809 129.10408042 -136.23596826 126.19757429 -133.5625 123.0625 C-130.69827587 119.71074836 -127.63664779 116.59444601 -124.5 113.5 C-121.4468302 110.48768895 -118.45927588 107.46451098 -115.6875 104.1875 C-111.80143317 99.62395905 -107.51712623 95.46414144 -103.23706055 91.27416992 C-100.3454318 88.42480813 -97.57394632 85.54374387 -94.9453125 82.44921875 C-89.28804182 75.89645045 -83.01320004 69.90908778 -76.875 63.8125 C-75.60002588 62.54255313 -74.32528454 61.27237251 -73.05078125 60.00195312 C-70.7109066 57.6701841 -68.36970315 55.33976806 -66.02685547 53.01098633 C-61.78612705 48.79352388 -57.56212511 44.56102393 -53.37110901 40.29415894 C-50.92045156 37.80265319 -48.46120185 35.31969464 -46.00170898 32.83691406 C-44.72223364 31.54245808 -43.44547627 30.24530916 -42.17163086 28.9453125 C-12.02294758 -1.80344214 -12.02294758 -1.80344214 0 0 Z " fill="#FCE57E" transform="translate(402,64)"/>
<path d="M0 0 C2.08729924 3.13094885 2.32383241 4.31942907 2.640625 7.9453125 C2.73835205 8.93184814 2.8360791 9.91838379 2.93676758 10.93481445 C3.04013428 11.98757568 3.14350098 13.04033691 3.25 14.125 C5.65588246 35.59818304 13.67736308 56.21460084 30.765625 70.35546875 C37.69427329 75.4550508 45.17321232 79.1654102 53.0625 82.5 C62.03257758 86.30088033 71.66818643 90.46909828 77 99 C78.2158981 103.07683481 78.54662073 104.95429077 76.5625 108.75 C70.80459807 113.80571877 64.57878588 114.6303524 57.13671875 114.40625 C36.67737266 111.75647168 15.96660832 92.78659332 3.49609375 77.109375 C-9.64117499 59.39784834 -17.37425079 39.20799212 -15 17 C-13.89965475 11.42766335 -12.37148361 6.13908436 -8.625 1.75 C-5.4404152 -0.37305653 -3.75364068 -0.6673139 0 0 Z " fill="#FCE57E" transform="translate(57,323)"/>
<path d="M0 0 C0.93392578 -0.00773437 1.86785156 -0.01546875 2.83007812 -0.0234375 C20.7189853 0.02621942 34.47351177 6.53462995 47.66015625 18.4921875 C57.30031092 28.31423189 64.67078326 43.08790412 65.375 56.9375 C65.2821875 58.0821875 65.2821875 58.0821875 65.1875 59.25 C62.48430809 56.80735671 60.80077149 54.11706166 58.9375 51 C50.24242815 37.2328029 36.57201284 29.25805848 21 24.9375 C2.50376747 21.44003058 -14.70210721 26.13377273 -30.1796875 36.3515625 C-43.12867515 45.68866635 -50.69019044 59.806118 -53.8125 75.25 C-54.48412414 79.89777029 -54.73183226 84.55660432 -54.8125 89.25 C-57.6856583 87.81342085 -57.85674122 86.26011334 -58.9375 83.25 C-63.84506557 66.47168148 -62.44061737 47.4888958 -54.1328125 32.1484375 C-52.4720439 29.41001461 -50.71278401 26.82651121 -48.8125 24.25 C-48.36390625 23.61835938 -47.9153125 22.98671875 -47.453125 22.3359375 C-36.2345285 7.88374554 -17.92128868 -0.14659541 0 0 Z " fill="#FD7D00" transform="translate(141.8125,274.75)"/>
<path d="M0 0 C3.33595784 1.44900227 5.49210129 3.26256239 8.03076172 5.85131836 C8.81192352 6.6423143 9.59308533 7.43331024 10.3979187 8.24827576 C11.2334024 9.10349319 12.06888611 9.95871063 12.9296875 10.83984375 C14.71211858 12.64269777 16.49467454 14.44542832 18.27734375 16.24804688 C21.07988974 19.09408319 23.88004122 21.94241749 26.67724609 24.79370117 C29.37993096 27.54470778 32.09178949 30.28641377 34.8046875 33.02734375 C36.05184036 34.30713356 36.05184036 34.30713356 37.32418823 35.61277771 C43.87815119 42.2787886 43.87815119 42.2787886 52.52734375 45.3984375 C62.40638426 45.30236903 68.03353537 41.65798649 75 35 C75.78117187 34.27039063 76.56234375 33.54078125 77.3671875 32.7890625 C83.56512233 26.83498085 88.14690322 22.35480999 88.375 13.375 C88.31841602 9.42543789 87.50660572 6.62790658 86 3 C86 2.01 86 1.02 86 0 C93.28486958 6.48774099 100.55781869 15.0850035 102 25 C102.37799022 34.26076034 98.60245334 40.84564187 92.63671875 47.7253418 C89.97735264 50.52151376 87.25821503 53.23891166 84.5 55.9375 C83.57574219 56.86884766 82.65148437 57.80019531 81.69921875 58.75976562 C75.39738875 65.00299491 70.21705429 69.53133622 61 70 C46.31205817 69.47934535 33.49328629 50.60727812 23.875 40.9375 C22.23460915 39.29208424 20.59398605 37.64689999 18.953125 36.00195312 C14.96606742 32.00396822 10.98189006 28.0031313 7 24 C1.59693975 28.56150379 1.59693975 28.56150379 -3.52734375 33.4296875 C-4.09130859 33.996875 -4.65527344 34.5640625 -5.23632812 35.1484375 C-5.79771484 35.71820313 -6.35910156 36.28796875 -6.9375 36.875 C-7.52595703 37.46796875 -8.11441406 38.0609375 -8.72070312 38.671875 C-10.14947674 40.11226466 -11.57508132 41.5557967 -13 43 C-17.07376031 41.38989473 -19.76507069 38.46177729 -22.75 35.375 C-23.25660156 34.859375 -23.76320313 34.34375 -24.28515625 33.8125 C-25.52803902 32.54616661 -26.76465276 31.2736856 -28 30 C-26.36221955 25.80374091 -23.26676818 23.01323215 -20.1171875 19.921875 C-19.54292023 19.35043762 -18.96865295 18.77900024 -18.37698364 18.19024658 C-16.5476419 16.37207055 -14.71145807 14.56098508 -12.875 12.75 C-11.63105226 11.51608671 -10.3875573 10.28171678 -9.14453125 9.046875 C-6.10157633 6.02593257 -3.05246746 3.01132908 0 0 Z " fill="#FC7D00" transform="translate(377,146)"/>
<path d="M0 0 C6.63079343 4.42052896 12.10507446 12.1434335 14.5625 19.74609375 C16.26018404 28.49219814 15.82246354 37.3654011 11 45 C7.61087901 49.25759139 3.8377126 53.14905391 0 57 C-4.07376031 55.38989473 -6.76507069 52.46177729 -9.75 49.375 C-10.25660156 48.859375 -10.76320313 48.34375 -11.28515625 47.8125 C-12.52803902 46.54616661 -13.76465276 45.2736856 -15 44 C-13.11644304 38.96087358 -8.72294666 35.69341041 -4.875 32.12890625 C-0.13030479 27.56836588 3.31152553 22.82726752 4.49609375 16.2421875 C4.36778391 11.05847013 3.76644793 7.53697461 1 3 C0.67 2.01 0.34 1.02 0 0 Z " fill="#FD7D00" transform="translate(435,61)"/>
</svg>
