<?xml version="1.0" encoding="UTF-8"?>
<svg version="1.1" xmlns="http://www.w3.org/2000/svg" width="499" height="500">
<path d="M0 0 C1.1238208 0.28367432 2.2476416 0.56734863 3.40551758 0.85961914 C15.25098621 3.96802903 26.37039976 8.49360513 37.4375 13.6875 C38.72633397 14.2804449 40.01541368 14.87285584 41.3046875 15.46484375 C48.81337836 18.9316037 56.23681298 22.53535183 63.5625 26.375 C64.59141357 26.90915527 64.59141357 26.90915527 65.64111328 27.45410156 C69.00242351 29.23899932 72.14352328 31.13010393 75.22265625 33.37109375 C77.98606773 35.36222742 80.39311754 36.52154025 83.5234375 37.76953125 C86.75541622 39.31956186 89.53483242 41.50435227 92.43359375 43.59765625 C96.02395284 46.09550035 99.71583884 48.39201337 103.4375 50.6875 C117.52104049 59.41714245 130.4696066 69.51493874 143.45654297 79.7722168 C147.57830775 83.02676414 151.74646167 86.21361877 155.9609375 89.34765625 C156.44820313 89.78980469 156.93546875 90.23195313 157.4375 90.6875 C157.4375 91.3475 157.4375 92.0075 157.4375 92.6875 C158.18257813 92.93886719 158.92765625 93.19023437 159.6953125 93.44921875 C162.64631709 94.7817949 164.13320772 96.13533224 166.3125 98.5 C168.87744268 101.1868506 171.36238752 103.47715045 174.4375 105.5625 C175.4275 106.26375 176.4175 106.965 177.4375 107.6875 C177.4375 108.3475 177.4375 109.0075 177.4375 109.6875 C178.0975 109.6875 178.7575 109.6875 179.4375 109.6875 C179.97375 110.368125 180.51 111.04875 181.0625 111.75 C183.65639454 114.95823799 186.5000776 117.30258887 189.73046875 119.84375 C191.88455126 122.17035628 192.16227509 123.54534894 192.4375 126.6875 C192.35552229 128.79512055 192.20759081 130.90102626 192 133 C191.89816406 134.06863281 191.79632813 135.13726562 191.69140625 136.23828125 C191.60761719 137.04652344 191.52382813 137.85476562 191.4375 138.6875 C187.29967786 138.17501744 185.48664415 136.01319018 182.6875 133.0625 C177.90209958 128.12931516 172.96747826 123.52355091 167.609375 119.21875 C166.1892941 118.07737657 164.80862845 116.8872374 163.4375 115.6875 C163.4375 115.0275 163.4375 114.3675 163.4375 113.6875 C162.86128906 113.43097656 162.28507812 113.17445313 161.69140625 112.91015625 C159.21798597 111.5684222 157.43924101 110.03490523 155.375 108.125 C148.96321843 102.31531324 142.38880601 96.65342231 135.25 91.75 C134.321875 91.069375 133.39375 90.38875 132.4375 89.6875 C132.4375 89.0275 132.4375 88.3675 132.4375 87.6875 C131.7775 87.6875 131.1175 87.6875 130.4375 87.6875 C130.4375 87.0275 130.4375 86.3675 130.4375 85.6875 C129.73367187 85.4503125 129.02984375 85.213125 128.3046875 84.96875 C124.92419389 83.4581207 122.44825544 81.50785297 119.5625 79.1875 C109.95317048 71.60462773 99.78293992 64.82055908 89.09765625 58.84375 C88.27587891 58.27140625 88.27587891 58.27140625 87.4375 57.6875 C87.4375 57.0275 87.4375 56.3675 87.4375 55.6875 C86.70789063 55.41421875 85.97828125 55.1409375 85.2265625 54.859375 C82.563035 53.7402458 80.26204475 52.46129707 77.8125 50.9375 C73.53331808 48.32870049 69.20216115 45.87863699 64.78515625 43.51171875 C62.16822061 42.08568731 59.58003102 40.62843555 56.99609375 39.14453125 C46.26169252 33.03060828 35.49235071 27.98213474 23.92407227 23.65795898 C21.16234803 22.58011374 18.46193046 21.38772181 15.74609375 20.19921875 C-3.38938187 12.19594975 -28.89934767 5.87209162 -49.125 12.875 C-53.55101583 14.72652057 -55.76952076 16.80531971 -58.5625 20.6875 C-59.614375 22.0178125 -59.614375 22.0178125 -60.6875 23.375 C-64.54965458 30.19813976 -65.10925169 37.97084551 -64.5625 45.6875 C-64.50578125 46.56019531 -64.4490625 47.43289062 -64.390625 48.33203125 C-62.65102802 64.13337051 -56.20667378 79.84487777 -48.32421875 93.53125 C-46.5625 96.6875 -46.5625 96.6875 -45.0625 100.22265625 C-43.59405805 103.61460418 -41.89582111 106.53657528 -39.875 109.625 C-39.25238281 110.58277344 -38.62976563 111.54054688 -37.98828125 112.52734375 C-37.51777344 113.24019531 -37.04726562 113.95304687 -36.5625 114.6875 C-27.89334905 113.98819589 -19.65861794 111.37952154 -11.31762695 109.05053711 C-9.32383355 108.49589787 -7.32805622 107.94888767 -5.33203125 107.40234375 C-4.15229736 107.07355225 -2.97256348 106.74476074 -1.75708008 106.40600586 C1.11441839 105.76016558 3.51241153 105.53655209 6.4375 105.6875 C6.46448189 107.31240954 6.48388757 108.93744633 6.5 110.5625 C6.51160156 111.46742188 6.52320313 112.37234375 6.53515625 113.3046875 C6.4375 115.6875 6.4375 115.6875 5.4375 117.6875 C3.77026367 118.31005859 3.77026367 118.31005859 1.60546875 118.8359375 C0.81197021 119.03477539 0.01847168 119.23361328 -0.79907227 119.43847656 C-1.64912842 119.6444043 -2.49918457 119.85033203 -3.375 120.0625 C-15.76422928 123.01688004 -15.76422928 123.01688004 -27.5625 127.6875 C-23.95739933 133.64851752 -20.31403114 139.16870923 -15.6015625 144.30078125 C-11.72256138 148.84114463 -8.3168399 153.75285764 -4.8203125 158.58984375 C-2.87541014 161.426232 -2.87541014 161.426232 -1.5625 162.6875 C-1.14611091 169.91136659 -0.96504838 176.86918951 -3.5625 183.6875 C-6.86536086 182.58654638 -7.34760901 181.9978981 -9.25 179.25 C-9.68699219 178.63253906 -10.12398438 178.01507813 -10.57421875 177.37890625 C-11.5625 175.6875 -11.5625 175.6875 -11.5625 173.6875 C-12.2225 173.6875 -12.8825 173.6875 -13.5625 173.6875 C-15.1484375 171.640625 -15.1484375 171.640625 -16.9375 168.9375 C-19.23952316 165.46925366 -21.58625189 162.5908604 -24.5625 159.6875 C-28.5625 154.13194444 -28.5625 154.13194444 -28.5625 151.6875 C-29.2225 151.6875 -29.8825 151.6875 -30.5625 151.6875 C-32.078125 149.81640625 -32.078125 149.81640625 -33.8125 147.25 C-34.37453125 146.42628906 -34.9365625 145.60257813 -35.515625 144.75390625 C-38.19968133 140.73294399 -40.88310899 136.71157297 -43.5625 132.6875 C-47.5515898 134.18312584 -51.5264877 135.71351595 -55.5 137.25 C-57.17545898 137.87745117 -57.17545898 137.87745117 -58.88476562 138.51757812 C-66.08189685 141.32467036 -71.77060034 144.5806967 -77.5625 149.6875 C-83.38059584 154.6875 -83.38059584 154.6875 -85.5625 154.6875 C-85.5625 155.3475 -85.5625 156.0075 -85.5625 156.6875 C-86.2225 156.6875 -86.8825 156.6875 -87.5625 156.6875 C-87.5625 157.3475 -87.5625 158.0075 -87.5625 158.6875 C-88.2225 158.6875 -88.8825 158.6875 -89.5625 158.6875 C-89.5625 159.3475 -89.5625 160.0075 -89.5625 160.6875 C-90.2225 160.6875 -90.8825 160.6875 -91.5625 160.6875 C-94.16799228 167.85260377 -94.91575176 175.70292536 -92.4375 183 C-89.18991773 187.65486792 -86.02830792 191.92156659 -81.1875 195 C-80.32125 195.556875 -79.455 196.11375 -78.5625 196.6875 C-78.5625 197.3475 -78.5625 198.0075 -78.5625 198.6875 C-77.5415625 199.0278125 -77.5415625 199.0278125 -76.5 199.375 C-73.5625 200.6875 -73.5625 200.6875 -70.6875 202.875 C-64.94264885 207.16757334 -58.07618892 209.77855527 -51.5625 212.6875 C-50.985 212.06875 -50.4075 211.45 -49.8125 210.8125 C-45.4386025 206.6815968 -42.19151771 206.37242034 -36.1875 206.3125 C-34.90101562 206.28414062 -33.61453125 206.25578125 -32.2890625 206.2265625 C-25.89656104 207.01724926 -21.80335759 210.87553798 -17.8203125 215.671875 C-15.69030527 219.08517852 -15.08131486 222.74271804 -14.5625 226.6875 C-13.325 226.831875 -12.0875 226.97625 -10.8125 227.125 C-7.98870437 227.45444282 -5.30933439 227.95129889 -2.5625 228.6875 C-2.43294922 227.26050781 -2.43294922 227.26050781 -2.30078125 225.8046875 C-1.31986205 215.79292769 0.17815292 205.91491038 1.875 196 C3.45370047 186.74546913 4.96668629 177.49669648 6.1875 168.1875 C6.30279053 167.32423096 6.41808105 166.46096191 6.53686523 165.5715332 C7.13294707 160.87642989 7.53020269 156.21355854 7.796875 151.48828125 C8.50439561 141.03317252 10.30541778 130.71777082 11.9375 120.375 C12.42156973 117.28077407 12.90397526 114.18630102 13.38439941 111.09150696 C13.68138657 109.18112698 13.98062996 107.27109579 14.28259277 105.36149597 C17.57438774 87.75799499 17.57438774 87.75799499 14.4375 70.6875 C9.75405938 65.07943161 4.25644292 60.56104743 -1.71484375 56.390625 C-3.92159807 54.35649206 -4.64433253 52.5141098 -5.5625 49.6875 C-3.5625 47.6875 -3.5625 47.6875 -1.06002808 47.47149658 C0.5226033 47.49575714 0.5226033 47.49575714 2.13720703 47.52050781 C3.33250031 47.53422424 4.52779358 47.54794067 5.75930786 47.56207275 C7.05818939 47.587995 8.35707092 47.61391724 9.6953125 47.640625 C11.04091452 47.66173077 12.38652651 47.6822092 13.73214722 47.7020874 C16.55856777 47.74616173 19.3847385 47.79751795 22.2109375 47.85400391 C25.81511177 47.9255149 29.4192902 47.979745 33.02383614 48.02846146 C35.80711177 48.06793544 38.59017438 48.11647973 41.37325668 48.16768646 C43.34276158 48.2024187 45.3123908 48.22985569 47.28201294 48.25714111 C56.50217286 48.4570424 63.66491394 49.48819365 71.9375 53.8125 C72.9790625 54.35132813 74.020625 54.89015625 75.09375 55.4453125 C75.8671875 55.85523438 76.640625 56.26515625 77.4375 56.6875 C77.4375 57.3475 77.4375 58.0075 77.4375 58.6875 C78.4275 58.6875 79.4175 58.6875 80.4375 58.6875 C80.4375 59.3475 80.4375 60.0075 80.4375 60.6875 C81.01242188 60.93113281 81.58734375 61.17476563 82.1796875 61.42578125 C91.0478127 66.38149828 96.81397463 77.34876164 102.17480469 85.72216797 C103.45929117 87.72141704 104.76249765 89.70735307 106.0703125 91.69140625 C106.90153293 92.9606159 107.73228045 94.23013543 108.5625 95.5 C108.95308594 96.09264648 109.34367188 96.68529297 109.74609375 97.29589844 C112.4375 101.45779119 112.4375 101.45779119 112.4375 103.6875 C113.0975 103.6875 113.7575 103.6875 114.4375 103.6875 C116.13671875 105.92578125 116.13671875 105.92578125 118.125 109 C118.8365625 110.093125 119.548125 111.18625 120.28125 112.3125 C122.81702342 116.2701178 125.3324655 120.24063011 127.8359375 124.21875 C129.23760408 126.37936776 130.70557949 128.44077265 132.25 130.5 C134.3481134 133.55725096 135.4820251 136.12618446 136.4375 139.6875 C137.0975 139.6875 137.7575 139.6875 138.4375 139.6875 C138.4375 140.6775 138.4375 141.6675 138.4375 142.6875 C139.0975 142.6875 139.7575 142.6875 140.4375 142.6875 C141.0975 144.6675 141.7575 146.6475 142.4375 148.6875 C143.0975 148.6875 143.7575 148.6875 144.4375 148.6875 C145.59385313 150.47567495 146.66196886 152.32121811 147.6875 154.1875 C149.84801708 158.02140296 152.01796915 161.61222026 154.75 165.0625 C157.14246458 168.11209486 158.48611122 170.88194489 159.4375 174.6875 C160.0975 174.6875 160.7575 174.6875 161.4375 174.6875 C162.69921875 176.48828125 162.69921875 176.48828125 164.125 179 C168.23349829 186.07463364 172.43515455 193.09435686 177.375 199.625 C179.4375 202.6875 179.4375 202.6875 179.4375 206.6875 C180.0975 206.6875 180.7575 206.6875 181.4375 206.6875 C182.71756797 208.47148614 183.91410351 210.31603906 185.0625 212.1875 C186.00996094 213.71890625 186.00996094 213.71890625 186.9765625 215.28125 C187.69972656 216.47234375 187.69972656 216.47234375 188.4375 217.6875 C190.3492818 215.7757182 190.02106913 212.41329805 190.3046875 209.85546875 C190.42350533 208.80714371 190.42350533 208.80714371 190.54472351 207.73764038 C190.71510802 206.23406692 190.8837378 204.7302938 191.05081177 203.22634888 C193.35423821 182.52935717 193.35423821 182.52935717 195 172.25 C196.46703172 163.07505569 197.46913233 153.85922568 198.43579102 144.61938477 C198.55237061 143.51780029 198.6689502 142.41621582 198.7890625 141.28125 C198.89041504 140.29833984 198.99176758 139.31542969 199.09619141 138.30273438 C199.4375 135.6875 199.4375 135.6875 199.93530273 133.73950195 C200.62279698 130.93036771 200.84919375 128.14036088 201.12109375 125.26171875 C201.24315186 123.99714844 201.36520996 122.73257813 201.4909668 121.4296875 C201.61898978 120.07812613 201.74700064 118.72656361 201.875 117.375 C202.65055571 109.29056421 203.42953712 101.22271836 204.625 93.1875 C206.28263105 80.89220184 206.63710757 71.33769669 199.4375 60.6875 C198.7775 60.3575 198.1175 60.0275 197.4375 59.6875 C197.4375 59.0275 197.4375 58.3675 197.4375 57.6875 C196.798125 57.378125 196.15875 57.06875 195.5 56.75 C193.4375 55.6875 193.4375 55.6875 192.4375 54.6875 C192.39669217 52.68791636 192.39495644 50.68704746 192.4375 48.6875 C195.31657819 47.2479609 197.75037778 47.60499146 200.96679688 47.64990234 C201.97191063 47.66190422 201.97191063 47.66190422 202.99732971 47.67414856 C205.21707282 47.70207794 207.43662253 47.73753722 209.65625 47.7734375 C211.19559298 47.79520114 212.73494043 47.81665091 214.27429199 47.83779907 C217.50241935 47.88332691 220.73046382 47.93255327 223.95849609 47.984375 C228.10139023 48.05060352 232.24435036 48.10787386 236.38741302 48.16240501 C239.56668682 48.20520184 242.74587824 48.25263912 245.92506409 48.30150223 C247.45290576 48.32443983 248.98076963 48.34594443 250.50865173 48.36600876 C252.6419402 48.39473919 254.77503765 48.42967995 256.90820312 48.46630859 C258.12350708 48.48486908 259.33881104 48.50342957 260.59094238 48.52255249 C263.4375 48.6875 263.4375 48.6875 265.4375 49.6875 C266.51777088 52.20813205 266.49879018 53.47019845 265.75 56.125 C264.4375 58.6875 264.4375 58.6875 262.5625 61 C257.0328636 67.99336368 255.62371268 74.67199285 254.5859375 83.32421875 C254.44096832 84.43948441 254.29599915 85.55475006 254.14663696 86.70381165 C253.6883243 90.25929093 253.25051553 93.81696985 252.8125 97.375 C252.51167259 99.71435456 252.2095997 102.0535493 251.90625 104.39257812 C250.44218987 115.81144535 249.14459926 127.22984408 248.10368347 138.69491577 C247.49449644 145.33396447 246.65559952 151.91242504 245.625 158.5 C245.45540771 159.62140381 245.28581543 160.74280762 245.11108398 161.89819336 C244.1899419 167.95361089 243.22745199 174.00158493 242.2421875 180.046875 C239.70099253 195.74160155 237.57700006 211.42969176 235.7640686 227.22512817 C233.97592684 242.74760129 231.89678133 258.21955172 229.6875 273.6875 C229.53275208 274.77940643 229.37800415 275.87131287 229.21856689 276.99630737 C228.78027018 280.0815158 228.33662545 283.16589683 227.890625 286.25 C227.75854645 287.17813004 227.6264679 288.10626007 227.49038696 289.06251526 C227.36626434 289.90942429 227.24214172 290.75633331 227.11425781 291.62890625 C227.0072052 292.36826416 226.90015259 293.10762207 226.78985596 293.86938477 C226.4375 295.6875 226.4375 295.6875 225.4375 297.6875 C218.71687625 298.93117415 211.94274209 298.90482059 205.125 298.9375 C204.06087891 298.958125 202.99675781 298.97875 201.90039062 299 C192.36462436 299.04654431 183.80832637 297.51004603 175.5 292.625 C174.62472656 292.11839844 173.74945313 291.61179687 172.84765625 291.08984375 C171.65462891 290.39568359 171.65462891 290.39568359 170.4375 289.6875 C169.74914062 289.378125 169.06078125 289.06875 168.3515625 288.75 C165.96235628 287.42374675 164.52624747 285.81907786 162.75 283.75 C161.84701172 282.71552734 161.84701172 282.71552734 160.92578125 281.66015625 C159.4375 279.6875 159.4375 279.6875 158.4375 276.6875 C157.4475 276.3575 156.4575 276.0275 155.4375 275.6875 C153.83203125 273.69140625 153.83203125 273.69140625 152.25 271.25 C151.72019531 270.44691406 151.19039063 269.64382813 150.64453125 268.81640625 C149.4375 266.6875 149.4375 266.6875 149.4375 264.6875 C148.7775 264.6875 148.1175 264.6875 147.4375 264.6875 C143.4375 257.9375 143.4375 257.9375 143.4375 255.6875 C142.7775 255.6875 142.1175 255.6875 141.4375 255.6875 C139.95703125 253.69970703 139.95703125 253.69970703 138.25 250.9453125 C137.63382813 249.96175781 137.01765625 248.97820312 136.3828125 247.96484375 C135.74085938 246.92457031 135.09890625 245.88429688 134.4375 244.8125 C133.16890283 242.77204552 131.89816983 240.73291693 130.625 238.6953125 C130.06167969 237.78410645 129.49835938 236.87290039 128.91796875 235.93408203 C127.49518954 233.61095944 127.49518954 233.61095944 125.4375 231.6875 C124.39013844 229.93222647 123.37406671 228.15820417 122.375 226.375 C119.73175888 221.77686181 116.92997861 217.3899039 113.875 213.0625 C110.62326822 208.44713876 107.62723033 203.77320254 104.77734375 198.90234375 C102.8377829 195.69613091 100.63753845 192.71998543 98.4375 189.6875 C97.97472656 188.91535156 97.51195312 188.14320313 97.03515625 187.34765625 C95.30749468 184.47103637 93.44906626 181.71229395 91.5625 178.9375 C88.70114562 174.67157568 86.08483988 170.38400886 83.66796875 165.85546875 C81.84253241 162.63922377 79.71682225 159.64433077 77.57421875 156.6328125 C76.4375 154.6875 76.4375 154.6875 76.4375 151.6875 C75.7775 151.6875 75.1175 151.6875 74.4375 151.6875 C73.7775 149.7075 73.1175 147.7275 72.4375 145.6875 C71.7775 145.6875 71.1175 145.6875 70.4375 145.6875 C69.7775 143.7075 69.1175 141.7275 68.4375 139.6875 C67.7775 139.6875 67.1175 139.6875 66.4375 139.6875 C66.12296875 139.02363281 65.8084375 138.35976562 65.484375 137.67578125 C65.05640625 136.79277344 64.6284375 135.90976563 64.1875 135 C63.56101563 133.69482422 63.56101563 133.69482422 62.921875 132.36328125 C61.35040996 129.53050874 59.52251897 127.16011865 57.4375 124.6875 C56.07478396 132.65211222 55.13702393 140.52454359 54.68359375 148.59375 C54.46237319 151.37480851 53.98511686 153.95854264 53.4375 156.6875 C53.48301305 159.55977601 53.48301305 159.55977601 53.59765625 162.4296875 C53.4375 164.6875 53.4375 164.6875 52.51953125 167.65869141 C51.10838581 172.49532938 50.57081469 177.415895 49.96484375 182.40625 C49.83686905 183.42295776 49.70889435 184.43966553 49.57704163 185.48718262 C49.1712023 188.72000168 48.77289924 191.95369502 48.375 195.1875 C47.97182734 198.4210749 47.56713034 201.65445633 47.1622467 204.88781738 C46.91156278 206.89440182 46.66217819 208.90114915 46.41429138 210.90808105 C45.80359175 215.84262284 45.1472178 220.76600789 44.4375 225.6875 C44.13784685 228.39527481 43.84648238 231.10311352 43.5625 233.8125 C42.72268465 241.68970293 41.63939856 249.51757514 40.40283203 257.34228516 C39.16093046 265.54331088 38.74186935 272.76908497 41.4375 280.6875 C42.0975 280.6875 42.7575 280.6875 43.4375 280.6875 C44.035625 281.450625 44.63375 282.21375 45.25 283 C47.47902747 285.73851947 49.38286156 286.99941033 52.4375 288.6875 C54.4375 290.6875 54.4375 290.6875 54.625 293.75 C54.4375 296.6875 54.4375 296.6875 53.4375 297.6875 C39.04207074 299.50237211 24.28143032 298.84125428 9.79614258 298.81787109 C6.17807833 298.81209193 2.56008695 298.81551792 -1.05797482 298.82144356 C-3.85710714 298.82504188 -6.65622186 298.8239154 -9.45535469 298.82131577 C-11.43914462 298.82032533 -13.42293524 298.82335952 -15.40672302 298.82644653 C-16.59629105 298.82329437 -17.78585907 298.82014221 -19.01147461 298.81689453 C-20.58788979 298.81570114 -20.58788979 298.81570114 -22.19615173 298.81448364 C-24.5625 298.6875 -24.5625 298.6875 -25.5625 297.6875 C-25.74139707 294.70588217 -25.78479442 293.33934747 -24.5625 290.6875 C-22.25065314 288.83888837 -19.88912186 287.38282167 -17.30078125 285.94921875 C-8.66566229 278.81693077 -7.37249837 269.36319546 -6.25 258.75 C-6.09533318 257.4235657 -5.93844455 256.09738852 -5.77929688 254.77148438 C-5.49035993 252.3595429 -5.21200674 249.94629137 -4.94799805 247.53149414 C-4.5625 244.6875 -4.5625 244.6875 -3.5625 241.6875 C-4.47773437 241.55472656 -5.39296875 241.42195312 -6.3359375 241.28515625 C-8.11871094 241.02025391 -8.11871094 241.02025391 -9.9375 240.75 C-11.12085937 240.57597656 -12.30421875 240.40195312 -13.5234375 240.22265625 C-16.5625 239.6875 -16.5625 239.6875 -18.5625 238.6875 C-18.82160156 239.28175781 -19.08070312 239.87601563 -19.34765625 240.48828125 C-20.65054176 242.84688107 -21.94315304 244.15432588 -24 245.875 C-24.89525391 246.63876953 -24.89525391 246.63876953 -25.80859375 247.41796875 C-30.37654294 250.72439077 -36.18957957 250.2293071 -41.5625 249.6875 C-47.5576365 247.63711874 -51.95317117 243.12924029 -55.375 237.9375 C-56.90525363 233.74943743 -56.82691738 230.09445639 -56.5625 225.6875 C-57.21863281 225.44386719 -57.87476563 225.20023438 -58.55078125 224.94921875 C-69.17183006 220.49967431 -79.42401022 214.67789856 -88.5625 207.6875 C-90.109375 206.5428125 -90.109375 206.5428125 -91.6875 205.375 C-92.30625 204.818125 -92.925 204.26125 -93.5625 203.6875 C-93.5625 203.0275 -93.5625 202.3675 -93.5625 201.6875 C-94.2225 201.6875 -94.8825 201.6875 -95.5625 201.6875 C-95.5625 201.0275 -95.5625 200.3675 -95.5625 199.6875 C-96.2225 199.6875 -96.8825 199.6875 -97.5625 199.6875 C-103.58160255 194.33909745 -108.11153186 185.95865224 -108.80078125 177.90234375 C-109.04643106 167.0549654 -106.55210896 159.78520731 -100.02734375 151.18359375 C-98.5625 149.6875 -98.5625 149.6875 -95.5625 148.6875 C-94.88910791 147.35755063 -94.22332944 146.02373601 -93.5625 144.6875 C-83.60678058 135.28964417 -64.63495979 122.6875 -50.5625 122.6875 C-50.85382813 122.16542969 -51.14515625 121.64335937 -51.4453125 121.10546875 C-54.29022747 115.99714658 -57.12088957 110.88148169 -59.90234375 105.73828125 C-61.06517083 103.60141549 -62.24647386 101.47454843 -63.44140625 99.35546875 C-75.72026173 77.339675 -87.46363352 49.96935013 -80.47265625 24.57421875 C-78.14082573 17.17841294 -74.97956254 10.36767701 -69.5625 4.6875 C-68.9025 4.6875 -68.2425 4.6875 -67.5625 4.6875 C-67.5625 4.0275 -67.5625 3.3675 -67.5625 2.6875 C-46.25832804 -9.71626234 -22.89698311 -5.8172565 0 0 Z " fill="#090909" transform="translate(121.5625,82.3125)"/>
<path d="M0 0 C8.3885994 7.95260151 10.56603463 19.11431385 11.0390625 30.23046875 C10.97953667 35.97471103 10.18069978 41.38811972 9 47 C8.74089844 48.35544922 8.74089844 48.35544922 8.4765625 49.73828125 C4.94526144 65.95016339 -2.23720971 81.42429671 -10 96 C-10.46664063 96.89976562 -10.93328125 97.79953125 -11.4140625 98.7265625 C-14.82063625 105.16120181 -18.54802551 111.41975726 -22.25 117.6875 C-22.78206055 118.59854492 -23.31412109 119.50958984 -23.86230469 120.44824219 C-24.61882324 121.71716309 -24.61882324 121.71716309 -25.390625 123.01171875 C-25.84469727 123.77959717 -26.29876953 124.54747559 -26.76660156 125.33862305 C-27.17362305 125.88687744 -27.58064453 126.43513184 -28 127 C-28.66 127 -29.32 127 -30 127 C-30.268125 127.70125 -30.53625 128.4025 -30.8125 129.125 C-32.0681449 132.1649824 -33.50235123 135.0727774 -35 138 C-35.66 138 -36.32 138 -37 138 C-37.2475 138.721875 -37.495 139.44375 -37.75 140.1875 C-39.1110723 143.24991267 -40.87319115 145.42794458 -43 148 C-41.47657651 148.6093694 -39.9531068 149.21862341 -38.42944336 149.82739258 C-37.08183842 150.36699612 -35.73501532 150.90855567 -34.38891602 151.4519043 C-30.99324999 152.8195321 -27.59444647 154.16067796 -24.15625 155.41796875 C-16.13260795 158.42683452 -9.27445957 162.08207409 -2.18359375 166.88671875 C1.2438355 169.1618589 4.74869709 171.09454383 8.42578125 172.9296875 C10 174 10 174 11 177 C12.32001928 177.69265528 13.65578873 178.35554808 15 179 C22.92238865 185.74111798 26.4849816 194.35039891 28.4765625 204.40625 C29.03026649 212.21639053 25.2527074 221.6209389 21 228 C20.34 228 19.68 228 19 228 C19 228.66 19 229.32 19 230 C18.34 230 17.68 230 17 230 C17 230.66 17 231.32 17 232 C16.34 232 15.68 232 15 232 C15 232.66 15 233.32 15 234 C14.34 234 13.68 234 13 234 C13 234.66 13 235.32 13 236 C12.34 236 11.68 236 11 236 C10.67 236.99 10.34 237.98 10 239 C8.03125 240.39453125 8.03125 240.39453125 5.5 241.8125 C2.13016505 243.71603018 -1.08405921 245.73249404 -4.26953125 247.92578125 C-8.72505917 250.91478654 -13.28141394 253.22297141 -18.1875 255.375 C-19.02958008 255.75003662 -19.87166016 256.12507324 -20.73925781 256.51147461 C-30.63672864 260.83866918 -40.80105392 264.45552978 -51 268 C-51 271.96752289 -49.51676034 273.00576917 -47 276 C-41.9253131 283.43079153 -37.51390609 291.25313252 -33.11035156 299.09106445 C-32.30533371 300.47506503 -31.46977986 301.84144851 -30.61621094 303.19604492 C-16.92665934 325.06437354 -6.77527988 352.85975553 -11.73046875 378.828125 C-13.51462194 384.62480232 -16.03615564 389.41028548 -20 394 C-20.66 394 -21.32 394 -22 394 C-22.21269531 394.59554688 -22.42539062 395.19109375 -22.64453125 395.8046875 C-24.49477002 398.80132782 -26.53135998 399.61227041 -29.6875 401.125 C-30.70199219 401.62257813 -31.71648437 402.12015625 -32.76171875 402.6328125 C-49.08063188 409.52258282 -69.41785334 407.27066781 -86 402 C-87.06492676 401.67854004 -87.06492676 401.67854004 -88.15136719 401.35058594 C-105.86792917 395.98642636 -122.56564035 388.44518148 -139 380 C-140.79067982 379.12298219 -142.58220981 378.24769569 -144.375 377.375 C-148.53001576 375.30096041 -152.47664399 372.95867458 -156.43359375 370.53125 C-159.08098654 368.95167927 -161.7750347 367.50355057 -164.5 366.0625 C-169.00784562 363.62889383 -173.13403451 360.89472439 -177.2890625 357.90625 C-180.36592891 355.74268976 -183.51531494 353.70688267 -186.6875 351.6875 C-191.79163849 348.43519995 -196.84784888 345.12010444 -201.875 341.75 C-206.86300295 338.40742506 -211.87820883 335.13579051 -217 332 C-217.82242188 332.64066406 -218.64484375 333.28132813 -219.4921875 333.94140625 C-226.20631536 339.15226546 -232.98616042 344.19640399 -240 349 C-241.26338417 349.87577818 -242.52637382 350.75212563 -243.7890625 351.62890625 C-266.0713605 367.07305404 -266.0713605 367.07305404 -271 368 C-271 368.66 -271 369.32 -271 370 C-272.88371004 371.32967768 -274.83595931 372.562695 -276.8125 373.75 C-277.40708008 374.10779541 -278.00166016 374.46559082 -278.61425781 374.83422852 C-283.99283688 378.04743362 -289.46585754 381.06351624 -295 384 C-296.31273384 384.70789986 -297.62521605 385.41626649 -298.9375 386.125 C-303.27092934 388.45712035 -307.63005878 390.73717765 -312 393 C-313.72089844 393.89912109 -313.72089844 393.89912109 -315.4765625 394.81640625 C-323.66765274 398.87429119 -332.09661888 401.89334345 -340.75 404.8125 C-342.45518799 405.39064453 -342.45518799 405.39064453 -344.19482422 405.98046875 C-354.8656171 409.48714154 -364.82820017 411.35219717 -376.0625 411.3125 C-376.97837891 411.32861328 -377.89425781 411.34472656 -378.83789062 411.36132812 C-390.25480289 411.36940803 -399.75557265 408.11520435 -408 400 C-415.84777536 388.12062239 -416.37647397 374.93895177 -414.46875 361.1640625 C-413.75988934 357.73533433 -412.92318369 354.37690876 -412 351 C-411.76796875 350.02804687 -411.5359375 349.05609375 -411.296875 348.0546875 C-406.80288785 331.18020634 -397.79360729 315.32315067 -388 301 C-386.98739778 299.34095976 -385.98278438 297.67687585 -385 296 C-382.03 296.66 -379.06 297.32 -376 298 C-376.5214797 302.74969352 -377.8418019 305.84539796 -380.375 309.875 C-382.75526285 313.80991728 -384.73341558 317.46569552 -386.19140625 321.8125 C-387.28626106 324.77442606 -388.64911449 327.58379564 -390 330.4375 C-397.69313186 347.02343528 -401.11734784 366.08928257 -396 384 C-395.34 384 -394.68 384 -394 384 C-394 384.66 -394 385.32 -394 386 C-393.14535156 386.41572266 -393.14535156 386.41572266 -392.2734375 386.83984375 C-390.7938986 387.59486618 -389.33769678 388.39812609 -387.9140625 389.25390625 C-377.30282643 395.32005656 -365.59537953 394.8882264 -354 392 C-349.22883707 390.68060362 -344.52024435 389.18701998 -339.82763672 387.61279297 C-338.25490454 387.08546759 -336.67675373 386.57435282 -335.09765625 386.06640625 C-328.57460705 383.85935953 -322.54767529 380.87203107 -316.48046875 377.64135742 C-312.9764364 375.8118682 -311.03618706 375 -307 375 C-307 374.34 -307 373.68 -307 373 C-304.38866262 371.57563415 -301.777076 370.15175904 -299.1640625 368.73046875 C-297.09112406 367.59675057 -295.02318269 366.45383608 -292.9609375 365.30078125 C-292.00445312 364.76839844 -291.04796875 364.23601562 -290.0625 363.6875 C-289.18722656 363.19636719 -288.31195313 362.70523437 -287.41015625 362.19921875 C-285.24510922 361.12195872 -283.36151326 360.46572767 -281 360 C-281 359.34 -281 358.68 -281 358 C-279.69289063 357.29037109 -279.69289063 357.29037109 -278.359375 356.56640625 C-270.98925973 352.4976945 -264.28156186 348.13437202 -257.62109375 342.96875 C-255.49452206 341.37144429 -253.45465882 340.01423499 -251.125 338.75 C-248.63333883 337.35466975 -246.81469591 336.08642813 -244.6875 334.25 C-242 332 -242 332 -240 332 C-240 331.34 -240 330.68 -240 330 C-238.39125 329.13375 -238.39125 329.13375 -236.75 328.25 C-233.6973471 326.51624176 -231.35402607 324.6365092 -229 322 C-229.97453125 321.38511719 -229.97453125 321.38511719 -230.96875 320.7578125 C-231.8040625 320.21898437 -232.639375 319.68015625 -233.5 319.125 C-234.3353125 318.59132813 -235.170625 318.05765625 -236.03125 317.5078125 C-236.6809375 317.01023437 -237.330625 316.51265625 -238 316 C-238 315.34 -238 314.68 -238 314 C-238.556875 313.731875 -239.11375 313.46375 -239.6875 313.1875 C-242.21225334 311.89100504 -244.63714484 310.57523677 -247 309 C-247 308.34 -247 307.68 -247 307 C-247.81210937 306.62875 -247.81210937 306.62875 -248.640625 306.25 C-251.5282849 304.72011396 -254.09776018 302.90849003 -256.75 301 C-257.73484375 300.29875 -258.7196875 299.5975 -259.734375 298.875 C-260.48203125 298.25625 -261.2296875 297.6375 -262 297 C-262 296.34 -262 295.68 -262 295 C-262.61875 294.690625 -263.2375 294.38125 -263.875 294.0625 C-265.25 293.375 -266.625 292.6875 -268 292 C-268 291.34 -268 290.68 -268 290 C-268.7734375 289.6596875 -268.7734375 289.6596875 -269.5625 289.3125 C-272.89547005 287.51782382 -276.14703671 285.50034985 -279 283 C-279 282.34 -279 281.68 -279 281 C-279.804375 280.6596875 -279.804375 280.6596875 -280.625 280.3125 C-283.81037195 278.55216287 -286.77105966 276.91211815 -289 274 C-289.11762537 270.83959204 -288.98365015 268.70112617 -288.375 265.6875 C-288.25253906 264.94693359 -288.13007813 264.20636719 -288.00390625 263.44335938 C-287.69867784 261.62372847 -287.35324679 259.81092179 -287 258 C-286.01 258 -285.02 258 -284 258 C-284 258.66 -284 259.32 -284 260 C-283.29875 260.226875 -282.5975 260.45375 -281.875 260.6875 C-276.27335779 263.24477144 -272.2984017 267.7015983 -268 272 C-265.70955783 273.14522108 -264.06051462 273.2754674 -261.51171875 273.5 C-260.5877832 273.58185547 -259.66384766 273.66371094 -258.71191406 273.74804688 C-257.2148291 273.87276367 -257.2148291 273.87276367 -255.6875 274 C-254.66237305 274.08830078 -253.63724609 274.17660156 -252.58105469 274.26757812 C-245.64019684 274.84331749 -238.70824743 275.22118852 -231.75 275.5 C-228.49907318 275.65152752 -225.24947882 275.8202786 -222 276 C-220.81921875 276.061875 -219.6384375 276.12375 -218.421875 276.1875 C-214.36492141 276.62139878 -211.97009928 276.90547494 -209.203125 280.02734375 C-207.80111608 282.35271876 -206.72743457 284.38403336 -206 287 C-206.33 287.99 -206.66 288.98 -207 290 C-208.28390625 289.9278125 -209.5678125 289.855625 -210.890625 289.78125 C-223.27383729 289.11969566 -235.60045037 288.88013325 -248 289 C-237.48548941 297.5486129 -237.48548941 297.5486129 -226.69921875 305.74609375 C-225.4873654 306.64035794 -224.30493597 307.57507403 -223.14453125 308.53515625 C-221.14347845 310.20067398 -221.14347845 310.20067398 -218 312 C-214.1932778 310.96403212 -211.52367957 309.03787148 -208.5 306.5625 C-205.44260336 304.11249935 -202.44628213 301.88989665 -199 300 C-197.79723305 301.40372802 -196.61319481 302.82352097 -195.4375 304.25 C-194.77621094 305.03890625 -194.11492187 305.8278125 -193.43359375 306.640625 C-192 309 -192 309 -192.09765625 311.234375 C-193 313 -193 313 -196 314 C-196 314.66 -196 315.32 -196 316 C-200.35294118 320 -200.35294118 320 -204 320 C-203.39456397 323.57964054 -203.04950466 323.95977746 -200 326.4375 C-195.82490167 329.23247227 -191.4311 331.63875624 -187 334 C-187 334.66 -187 335.32 -187 336 C-186.30519531 336.2578125 -185.61039063 336.515625 -184.89453125 336.78125 C-181.67015678 338.13888136 -178.71833768 339.75329013 -175.6875 341.5 C-174.61886719 342.1084375 -173.55023438 342.716875 -172.44921875 343.34375 C-171.64097656 343.8903125 -170.83273437 344.436875 -170 345 C-170 345.66 -170 346.32 -170 347 C-169.41605469 347.12503906 -168.83210937 347.25007813 -168.23046875 347.37890625 C-165.99586673 348.00115094 -164.32333475 348.79136498 -162.3125 349.9375 C-161.52488281 350.38351562 -160.73726562 350.82953125 -159.92578125 351.2890625 C-157.6827132 352.60076318 -155.45407722 353.9294437 -153.23046875 355.2734375 C-144.55866848 360.49060155 -135.83331837 365.14102808 -126.609375 369.30859375 C-123 371 -123 371 -120.37890625 372.578125 C-116.6907193 374.78255858 -112.73029098 376.10979291 -108.71484375 377.609375 C-106.19295226 378.55342692 -103.69045241 379.51575212 -101.19140625 380.515625 C-84.59573003 387.08504925 -61.89125064 394.64991568 -44.34375 387.9921875 C-39.44358794 385.75332035 -36.31865265 384.07205266 -34 379 C-33.34 379 -32.68 379 -32 379 C-25.87177001 354.07853139 -33.08825639 331.58265037 -45.05078125 309.61328125 C-46.64994232 306.67189866 -48.15985653 303.69839353 -49.625 300.6875 C-53.42828479 293.00461031 -58.00388877 285.84056997 -62.8984375 278.8125 C-64 277 -64 277 -64 275 C-64.66 275 -65.32 275 -66 275 C-66.33 274.34 -66.66 273.68 -67 273 C-67.76143311 273.15146484 -68.52286621 273.30292969 -69.30737305 273.45898438 C-72.76646718 274.14421445 -76.22694684 274.82217858 -79.6875 275.5 C-80.88568359 275.73847656 -82.08386719 275.97695313 -83.31835938 276.22265625 C-85.05375977 276.56103516 -85.05375977 276.56103516 -86.82421875 276.90625 C-87.88729248 277.11572266 -88.95036621 277.32519531 -90.0456543 277.54101562 C-92.75880423 277.96252805 -95.26112659 278.08856503 -98 278 C-97.85851011 276.3954444 -97.71164314 274.79136233 -97.5625 273.1875 C-97.48128906 272.29417969 -97.40007812 271.40085937 -97.31640625 270.48046875 C-97 268 -97 268 -96 265 C-93.38792454 264.10843543 -90.92844406 263.41845081 -88.25 262.8125 C-87.53328125 262.63525391 -86.8165625 262.45800781 -86.078125 262.27539062 C-82.31667213 261.37997124 -78.89415701 260.77769576 -75 261 C-75.66 259.35 -76.32 257.7 -77 256 C-77.66 256 -78.32 256 -79 256 C-80.515625 254.09375 -80.515625 254.09375 -82.25 251.5 C-84.4961773 248.14721544 -86.80408667 245.05250762 -89.4375 242 C-92.8517027 237.50523847 -92.62535704 233.43444078 -92 228 C-91.91878906 227.27683594 -91.83757812 226.55367187 -91.75390625 225.80859375 C-91.54267132 224.19995849 -91.27799162 222.59845183 -91 221 C-90.01 221 -89.02 221 -88 221 C-87.67 221.99 -87.34 222.98 -87 224 C-86.34 224 -85.68 224 -85 224 C-83.20460444 226.0897227 -81.52938558 228.17842082 -79.875 230.375 C-79.40707031 230.97828125 -78.93914062 231.5815625 -78.45703125 232.203125 C-75 236.73858874 -75 236.73858874 -75 239 C-74.34 239 -73.68 239 -73 239 C-72.34 240.65 -71.68 242.3 -71 244 C-70.34 244 -69.68 244 -69 244 C-67.62464661 245.97133986 -66.29788956 247.97681922 -65 250 C-64.2575 250.9075 -63.515 251.815 -62.75 252.75 C-61 255 -61 255 -61 257 C-59.79085938 256.55269531 -58.58171875 256.10539062 -57.3359375 255.64453125 C-56.5507373 255.35465332 -55.76553711 255.06477539 -54.95654297 254.76611328 C-53.21807973 254.12393081 -51.48013303 253.48034849 -49.74267578 252.83544922 C-44.81193305 251.01130163 -39.86353512 249.28590246 -34.875 247.625 C-23.34805252 243.52562783 -12.56382398 237.61202317 -3 230 C-2.34 230 -1.68 230 -1 230 C-1 229.34 -1 228.68 -1 228 C0.609375 226.484375 0.609375 226.484375 2.75 224.75 C8.04281309 220.24408301 11.39937467 216.0610069 12.23828125 208.9921875 C12.46356874 202.56556542 10.60630167 197.79875954 8 192 C7.67 191.01 7.34 190.02 7 189 C6.34 189 5.68 189 5 189 C5 188.34 5 187.68 5 187 C4.43539063 186.74863281 3.87078125 186.49726563 3.2890625 186.23828125 C0.67376531 184.82352151 -1.3620522 183.11505977 -3.625 181.1875 C-8.50958885 177.24443335 -13.28819931 174.54845582 -19 172 C-20.36883835 171.36533501 -21.73729631 170.72984924 -23.10546875 170.09375 C-32.56818305 165.74430071 -42.04065648 162.05537382 -52 159 C-52 159.66 -52 160.32 -52 161 C-52.66 161 -53.32 161 -54 161 C-54.66 162.98 -55.32 164.96 -56 167 C-56.66 167 -57.32 167 -58 167 C-58.66 168.65 -59.32 170.3 -60 172 C-60.66 172 -61.32 172 -62 172 C-62.40412109 172.87011719 -62.40412109 172.87011719 -62.81640625 173.7578125 C-64.01400907 176.02653864 -65.34140621 177.86915108 -66.9375 179.875 C-69.24081257 182.77349628 -71.52539009 185.681511 -73.765625 188.62890625 C-74.7395286 189.89847949 -75.71348691 191.16801076 -76.6875 192.4375 C-77.1508374 193.05286621 -77.6141748 193.66823242 -78.09155273 194.30224609 C-80.4368519 197.33624757 -82.31830551 199.69804246 -86 201 C-84.76495957 175.36226415 -84.76495957 175.36226415 -77 167 C-76.34 167 -75.68 167 -75 167 C-74.773125 166.319375 -74.54625 165.63875 -74.3125 164.9375 C-72.64427643 161.20385676 -70.44270392 158.27836579 -68 155 C-72.2505466 153.14038586 -76.49933525 152.06795435 -81 151 C-80.67 147.37 -80.34 143.74 -80 140 C-74.20858435 139.67825469 -69.78138421 140.4573583 -64.296875 142.34375 C-61.75711504 143.18314742 -61.75711504 143.18314742 -58 143 C-56.0897588 140.67780583 -54.48960319 138.45450839 -52.875 135.9375 C-52.39780518 135.21667236 -51.92061035 134.49584473 -51.42895508 133.75317383 C-50.43473796 132.24979156 -49.44595759 130.74280097 -48.46240234 129.23242188 C-47.08733879 127.13332653 -45.68597043 125.05570475 -44.26953125 122.984375 C-39.40534658 115.85308576 -34.99606329 108.6599601 -31 101 C-30.30833622 99.74739927 -29.61413742 98.49619636 -28.91796875 97.24609375 C-20.08316309 81.23443775 -13.54443579 64.96247966 -10 47 C-9.71382813 45.71996094 -9.71382813 45.71996094 -9.421875 44.4140625 C-7.57553784 33.84891098 -9.22981333 25.1938781 -14.75 16.125 C-22.95043708 8.38014276 -33.0943391 8.42624065 -43.7265625 8.5859375 C-60.94848412 9.33378102 -77.62275607 16.03077177 -92.74609375 23.88671875 C-99.04912281 27 -99.04912281 27 -103 27 C-103 27.66 -103 28.32 -103 29 C-103.76183594 29.37511719 -104.52367187 29.75023437 -105.30859375 30.13671875 C-106.85740234 30.90435547 -106.85740234 30.90435547 -108.4375 31.6875 C-109.44683594 32.18636719 -110.45617187 32.68523437 -111.49609375 33.19921875 C-119.87666263 37.50628927 -127.88473462 42.33252878 -135.86523438 47.33398438 C-136.63029297 47.80771484 -137.39535156 48.28144531 -138.18359375 48.76953125 C-139.21311157 49.41305542 -139.21311157 49.41305542 -140.26342773 50.06958008 C-142 51 -142 51 -144 51 C-144 51.66 -144 52.32 -144 53 C-145.63302492 54.05404336 -147.30831857 55.04292544 -149 56 C-158.40762748 62.24876136 -167.46793723 68.98052884 -176.5390625 75.703125 C-180.00467888 78.27078552 -183.49369703 80.80082165 -187 83.3125 C-192.52326422 87.30971319 -197.76967971 91.62959697 -203 96 C-206.55225704 94.28564986 -209.74021634 92.22257977 -213 90 C-212.64865599 87.17042588 -212.11837561 86.11391304 -210.03125 84.10546875 C-209.1959375 83.47253906 -208.360625 82.83960938 -207.5 82.1875 C-206.59507812 81.49269531 -205.69015625 80.79789062 -204.7578125 80.08203125 C-203.84773437 79.39496094 -202.93765625 78.70789063 -202 78 C-200.45697339 76.79340378 -198.91522192 75.58517437 -197.375 74.375 C-195.9175256 73.24888745 -194.45920168 72.12387347 -193 71 C-192.25105469 70.41605469 -191.50210938 69.83210938 -190.73046875 69.23046875 C-189.65732422 68.40482422 -189.65732422 68.40482422 -188.5625 67.5625 C-187.92441406 67.06878906 -187.28632813 66.57507813 -186.62890625 66.06640625 C-185 65 -185 65 -183 65 C-182.67 64.01 -182.34 63.02 -182 62 C-180.00390625 60.39453125 -180.00390625 60.39453125 -177.5625 58.8125 C-176.75941406 58.28269531 -175.95632813 57.75289063 -175.12890625 57.20703125 C-173 56 -173 56 -171 56 C-171 55.34 -171 54.68 -171 54 C-169.19140625 52.6953125 -169.19140625 52.6953125 -166.5625 51.125 C-160.51762013 47.40386616 -154.76275427 43.34090377 -149.01586914 39.17626953 C-145.13121366 36.39060131 -141.32711538 34.06787967 -137 32 C-135.64829117 31.13214149 -134.31371292 30.23686655 -133 29.3125 C-128.01290123 25.92630184 -122.8067604 22.97321299 -117.55859375 20.01953125 C-114.25205819 18.15653055 -111.00295976 16.20512511 -107.75 14.25 C-103.50789198 11.76845065 -99.33531505 9.79688042 -94.734375 8.08984375 C-92.02765077 7.01102081 -89.43418039 5.76940278 -86.82080078 4.48339844 C-78.13795111 0.23764928 -69.33217021 -2.55039231 -60 -5 C-58.84628906 -5.309375 -57.69257813 -5.61875 -56.50390625 -5.9375 C-37.63194268 -10.8380848 -16.58716253 -11.82877069 0 0 Z " fill="#171616" transform="translate(460,50)"/>
<path d="M0 0 C1.1238208 0.28367432 2.2476416 0.56734863 3.40551758 0.85961914 C15.25098621 3.96802903 26.37039976 8.49360513 37.4375 13.6875 C38.72633397 14.2804449 40.01541368 14.87285584 41.3046875 15.46484375 C48.81337836 18.9316037 56.23681298 22.53535183 63.5625 26.375 C64.59141357 26.90915527 64.59141357 26.90915527 65.64111328 27.45410156 C69.00242351 29.23899932 72.14352328 31.13010393 75.22265625 33.37109375 C77.98606773 35.36222742 80.39311754 36.52154025 83.5234375 37.76953125 C86.75541622 39.31956186 89.53483242 41.50435227 92.43359375 43.59765625 C96.02395284 46.09550035 99.71583884 48.39201337 103.4375 50.6875 C117.52104049 59.41714245 130.4696066 69.51493874 143.45654297 79.7722168 C147.57830775 83.02676414 151.74646167 86.21361877 155.9609375 89.34765625 C156.44820313 89.78980469 156.93546875 90.23195313 157.4375 90.6875 C157.4375 91.3475 157.4375 92.0075 157.4375 92.6875 C158.18257813 92.93886719 158.92765625 93.19023437 159.6953125 93.44921875 C162.64631709 94.7817949 164.13320772 96.13533224 166.3125 98.5 C168.87744268 101.1868506 171.36238752 103.47715045 174.4375 105.5625 C175.4275 106.26375 176.4175 106.965 177.4375 107.6875 C177.4375 108.3475 177.4375 109.0075 177.4375 109.6875 C178.0975 109.6875 178.7575 109.6875 179.4375 109.6875 C179.97375 110.368125 180.51 111.04875 181.0625 111.75 C183.65639454 114.95823799 186.5000776 117.30258887 189.73046875 119.84375 C191.88455126 122.17035628 192.16227509 123.54534894 192.4375 126.6875 C192.35552229 128.79512055 192.20759081 130.90102626 192 133 C191.89816406 134.06863281 191.79632813 135.13726562 191.69140625 136.23828125 C191.60761719 137.04652344 191.52382813 137.85476562 191.4375 138.6875 C187.29967786 138.17501744 185.48664415 136.01319018 182.6875 133.0625 C177.90209958 128.12931516 172.96747826 123.52355091 167.609375 119.21875 C166.1892941 118.07737657 164.80862845 116.8872374 163.4375 115.6875 C163.4375 115.0275 163.4375 114.3675 163.4375 113.6875 C162.86128906 113.43097656 162.28507812 113.17445313 161.69140625 112.91015625 C159.21798597 111.5684222 157.43924101 110.03490523 155.375 108.125 C148.96321843 102.31531324 142.38880601 96.65342231 135.25 91.75 C134.321875 91.069375 133.39375 90.38875 132.4375 89.6875 C132.4375 89.0275 132.4375 88.3675 132.4375 87.6875 C131.7775 87.6875 131.1175 87.6875 130.4375 87.6875 C130.4375 87.0275 130.4375 86.3675 130.4375 85.6875 C129.73367187 85.4503125 129.02984375 85.213125 128.3046875 84.96875 C124.92419389 83.4581207 122.44825544 81.50785297 119.5625 79.1875 C109.95317048 71.60462773 99.78293992 64.82055908 89.09765625 58.84375 C88.27587891 58.27140625 88.27587891 58.27140625 87.4375 57.6875 C87.4375 57.0275 87.4375 56.3675 87.4375 55.6875 C86.70789063 55.41421875 85.97828125 55.1409375 85.2265625 54.859375 C82.563035 53.7402458 80.26204475 52.46129707 77.8125 50.9375 C73.53331808 48.32870049 69.20216115 45.87863699 64.78515625 43.51171875 C62.16822061 42.08568731 59.58003102 40.62843555 56.99609375 39.14453125 C46.26169252 33.03060828 35.49235071 27.98213474 23.92407227 23.65795898 C21.16234803 22.58011374 18.46193046 21.38772181 15.74609375 20.19921875 C-3.38938187 12.19594975 -28.89934767 5.87209162 -49.125 12.875 C-53.55101583 14.72652057 -55.76952076 16.80531971 -58.5625 20.6875 C-59.614375 22.0178125 -59.614375 22.0178125 -60.6875 23.375 C-64.54965458 30.19813976 -65.10925169 37.97084551 -64.5625 45.6875 C-64.50578125 46.56019531 -64.4490625 47.43289062 -64.390625 48.33203125 C-62.65102802 64.13337051 -56.20667378 79.84487777 -48.32421875 93.53125 C-46.5625 96.6875 -46.5625 96.6875 -45.0625 100.22265625 C-43.59405805 103.61460418 -41.89582111 106.53657528 -39.875 109.625 C-39.25238281 110.58277344 -38.62976563 111.54054688 -37.98828125 112.52734375 C-37.51777344 113.24019531 -37.04726562 113.95304687 -36.5625 114.6875 C-27.89334905 113.98819589 -19.65861794 111.37952154 -11.31762695 109.05053711 C-9.32383355 108.49589787 -7.32805622 107.94888767 -5.33203125 107.40234375 C-4.15229736 107.07355225 -2.97256348 106.74476074 -1.75708008 106.40600586 C1.11441839 105.76016558 3.51241153 105.53655209 6.4375 105.6875 C6.46448189 107.31240954 6.48388757 108.93744633 6.5 110.5625 C6.51160156 111.46742188 6.52320313 112.37234375 6.53515625 113.3046875 C6.4375 115.6875 6.4375 115.6875 5.4375 117.6875 C3.77026367 118.31005859 3.77026367 118.31005859 1.60546875 118.8359375 C0.81197021 119.03477539 0.01847168 119.23361328 -0.79907227 119.43847656 C-1.64912842 119.6444043 -2.49918457 119.85033203 -3.375 120.0625 C-15.76422928 123.01688004 -15.76422928 123.01688004 -27.5625 127.6875 C-23.95739933 133.64851752 -20.31403114 139.16870923 -15.6015625 144.30078125 C-11.72256138 148.84114463 -8.3168399 153.75285764 -4.8203125 158.58984375 C-2.87541014 161.426232 -2.87541014 161.426232 -1.5625 162.6875 C-1.14611091 169.91136659 -0.96504838 176.86918951 -3.5625 183.6875 C-6.86536086 182.58654638 -7.34760901 181.9978981 -9.25 179.25 C-9.68699219 178.63253906 -10.12398438 178.01507813 -10.57421875 177.37890625 C-11.5625 175.6875 -11.5625 175.6875 -11.5625 173.6875 C-12.2225 173.6875 -12.8825 173.6875 -13.5625 173.6875 C-15.1484375 171.640625 -15.1484375 171.640625 -16.9375 168.9375 C-19.23952316 165.46925366 -21.58625189 162.5908604 -24.5625 159.6875 C-28.5625 154.13194444 -28.5625 154.13194444 -28.5625 151.6875 C-29.2225 151.6875 -29.8825 151.6875 -30.5625 151.6875 C-32.078125 149.81640625 -32.078125 149.81640625 -33.8125 147.25 C-34.37453125 146.42628906 -34.9365625 145.60257813 -35.515625 144.75390625 C-38.19968133 140.73294399 -40.88310899 136.71157297 -43.5625 132.6875 C-47.5515898 134.18312584 -51.5264877 135.71351595 -55.5 137.25 C-57.17545898 137.87745117 -57.17545898 137.87745117 -58.88476562 138.51757812 C-66.08189685 141.32467036 -71.77060034 144.5806967 -77.5625 149.6875 C-83.38059584 154.6875 -83.38059584 154.6875 -85.5625 154.6875 C-85.5625 155.3475 -85.5625 156.0075 -85.5625 156.6875 C-86.2225 156.6875 -86.8825 156.6875 -87.5625 156.6875 C-87.5625 157.3475 -87.5625 158.0075 -87.5625 158.6875 C-88.2225 158.6875 -88.8825 158.6875 -89.5625 158.6875 C-89.5625 159.3475 -89.5625 160.0075 -89.5625 160.6875 C-90.2225 160.6875 -90.8825 160.6875 -91.5625 160.6875 C-94.16799228 167.85260377 -94.91575176 175.70292536 -92.4375 183 C-89.18991773 187.65486792 -86.02830792 191.92156659 -81.1875 195 C-80.32125 195.556875 -79.455 196.11375 -78.5625 196.6875 C-78.5625 197.3475 -78.5625 198.0075 -78.5625 198.6875 C-77.5415625 199.0278125 -77.5415625 199.0278125 -76.5 199.375 C-73.39768896 200.76113898 -70.92696297 202.45323789 -68.2109375 204.46875 C-66.69546843 205.58919159 -65.13065234 206.64206511 -63.5625 207.6875 C-64.5525 207.6875 -65.5425 207.6875 -66.5625 207.6875 C-66.2325 208.6775 -65.9025 209.6675 -65.5625 210.6875 C-68.5625 211.6875 -68.5625 211.6875 -69.5625 211.6875 C-70.2225 213.6675 -70.8825 215.6475 -71.5625 217.6875 C-76.26266515 216.06926132 -80.14199016 213.54586057 -84.25 210.8125 C-84.92611328 210.37808594 -85.60222656 209.94367188 -86.29882812 209.49609375 C-92.33039189 205.49905746 -92.33039189 205.49905746 -93.5625 201.6875 C-94.2225 201.6875 -94.8825 201.6875 -95.5625 201.6875 C-95.5625 201.0275 -95.5625 200.3675 -95.5625 199.6875 C-96.2225 199.6875 -96.8825 199.6875 -97.5625 199.6875 C-103.58160255 194.33909745 -108.11153186 185.95865224 -108.80078125 177.90234375 C-109.04643106 167.0549654 -106.55210896 159.78520731 -100.02734375 151.18359375 C-98.5625 149.6875 -98.5625 149.6875 -95.5625 148.6875 C-94.88910791 147.35755063 -94.22332944 146.02373601 -93.5625 144.6875 C-83.60678058 135.28964417 -64.63495979 122.6875 -50.5625 122.6875 C-50.85382813 122.16542969 -51.14515625 121.64335937 -51.4453125 121.10546875 C-54.29022747 115.99714658 -57.12088957 110.88148169 -59.90234375 105.73828125 C-61.06517083 103.60141549 -62.24647386 101.47454843 -63.44140625 99.35546875 C-75.72026173 77.339675 -87.46363352 49.96935013 -80.47265625 24.57421875 C-78.14082573 17.17841294 -74.97956254 10.36767701 -69.5625 4.6875 C-68.9025 4.6875 -68.2425 4.6875 -67.5625 4.6875 C-67.5625 4.0275 -67.5625 3.3675 -67.5625 2.6875 C-46.25832804 -9.71626234 -22.89698311 -5.8172565 0 0 Z " fill="#181818" transform="translate(121.5625,82.3125)"/>
<path d="M0 0 C2.97 0.66 5.94 1.32 9 2 C8.57202798 7.70629354 6.15654048 11.41078616 3 16 C1.68 15.67 0.36 15.34 -1 15 C-0.67 14.01 -0.34 13.02 0 12 C-0.598125 12.33 -1.19625 12.66 -1.8125 13 C-4 14 -4 14 -7 14 C-7.103125 14.556875 -7.20625 15.11375 -7.3125 15.6875 C-8.13324399 18.44818433 -9.46657154 20.5720716 -11 23 C-11.33 23.66 -11.66 24.32 -12 25 C-12.66 25 -13.32 25 -14 25 C-12.58894857 20.00411519 -10.41781867 16.19510764 -7.5625 11.9375 C-4.96500012 8.00099529 -2.39103271 4.06706208 0 0 Z " fill="#20201F" transform="translate(75,346)"/>
<path d="M0 0 C-0.94875 0.268125 -1.8975 0.53625 -2.875 0.8125 C-6.25267273 1.74986588 -6.25267273 1.74986588 -8 5 C-8 5.99 -8 6.98 -8 8 C-8.66 8.66 -9.32 9.32 -10 10 C-9.67 10.66 -9.34 11.32 -9 12 C-8.34 11.67 -7.68 11.34 -7 11 C-6.01 11.66 -5.02 12.32 -4 13 C-5.39417773 13.34019152 -6.79044658 13.67181779 -8.1875 14 C-8.96480469 14.185625 -9.74210937 14.37125 -10.54296875 14.5625 C-13.07990225 15.01422743 -15.42879903 15.07307143 -18 15 C-17.85851011 13.3954444 -17.71164314 11.79136233 -17.5625 10.1875 C-17.48128906 9.29417969 -17.40007812 8.40085937 -17.31640625 7.48046875 C-17 5 -17 5 -16 2 C-13.41796875 1.015625 -13.41796875 1.015625 -10.1875 0.25 C-9.12917969 -0.01296875 -8.07085937 -0.2759375 -6.98046875 -0.546875 C-4.18266064 -0.97222984 -2.62468156 -0.94056385 0 0 Z " fill="#343434" transform="translate(380,313)"/>
<path d="M0 0 C1.33333333 0.66666667 2.66666667 1.33333333 4 2 C4.66 1.67 5.32 1.34 6 1 C5.34 3.97 4.68 6.94 4 10 C1.0280615 8.87548273 -1.33440687 7.77706209 -4 6 C-4 5.01 -4 4.02 -4 3 C-3.34 3 -2.68 3 -2 3 C-2 2.34 -2 1.68 -2 1 C-1.34 0.67 -0.68 0.34 0 0 Z " fill="#1E1E1D" transform="translate(302,411)"/>
<path d="M0 0 C1.53202706 0.25195908 3.05257128 0.57596777 4.5625 0.9375 C5.38878906 1.13214844 6.21507813 1.32679688 7.06640625 1.52734375 C8.02353516 1.76130859 8.02353516 1.76130859 9 2 C8.67 3.32 8.34 4.64 8 6 C8 5.01 8 4.02 8 3 C7.37351562 3.28875 6.74703125 3.5775 6.1015625 3.875 C5.28429687 4.24625 4.46703125 4.6175 3.625 5 C2.40683594 5.556875 2.40683594 5.556875 1.1640625 6.125 C-1 7 -1 7 -3 7 C-1.125 1.125 -1.125 1.125 0 0 Z " fill="#353535" transform="translate(75,346)"/>
<path d="M0 0 C2.97 0.495 2.97 0.495 6 1 C3.24829249 3.9555377 0.58029701 6.11563315 -3 8 C-3.66 8 -4.32 8 -5 8 C-4.67 7.01 -4.34 6.02 -4 5 C-3.34 5.33 -2.68 5.66 -2 6 C-2 4.68 -2 3.36 -2 2 C-1.34 2 -0.68 2 0 2 C0 1.34 0 0.68 0 0 Z " fill="#4A4949" transform="translate(207,402)"/>
<path d="M0 0 C0.66 1.32 1.32 2.64 2 4 C-0.45250093 5.22625047 -1.84310435 5.03425355 -4.5703125 4.87890625 C-5.91416016 4.80639648 -5.91416016 4.80639648 -7.28515625 4.73242188 C-8.22230469 4.67634766 -9.15945312 4.62027344 -10.125 4.5625 C-11.54232422 4.48418945 -11.54232422 4.48418945 -12.98828125 4.40429688 C-15.3258419 4.27443239 -17.66299545 4.1394613 -20 4 C-20 3.67 -20 3.34 -20 3 C-13.4 3 -6.8 3 0 3 C0 2.01 0 1.02 0 0 Z " fill="#797875" transform="translate(252,335)"/>
<path d="M0 0 C0.66 0.33 1.32 0.66 2 1 C0 3 0 3 -2.5 4.8125 C-5.14166676 7.12395842 -5.98882316 8.69069397 -7 12 C-7.33 12 -7.66 12 -8 12 C-7.8794926 5.85412262 -7.8794926 5.85412262 -5.375 3.421875 C-3.62212283 2.19203376 -1.86259544 1.05530865 0 0 Z " fill="#555452" transform="translate(104,368)"/>
<path d="M0 0 C0.33 0 0.66 0 1 0 C0.67 4.62 0.34 9.24 0 14 C0.66 14.33 1.32 14.66 2 15 C0.02 15.99 0.02 15.99 -2 17 C-1.85848172 14.9163691 -1.71162064 12.83310062 -1.5625 10.75 C-1.48128906 9.58984375 -1.40007812 8.4296875 -1.31640625 7.234375 C-1.06752213 4.69022624 -0.71885058 2.44046752 0 0 Z " fill="#7E7E7E" transform="translate(376,234)"/>
<path d="M0 0 C2 2 2 2 2.125 4.625 C2.08375 5.40875 2.0425 6.1925 2 7 C0.35 7.66 -1.3 8.32 -3 9 C-2.69181644 7.68647977 -2.37832335 6.37420428 -2.0625 5.0625 C-1.88847656 4.33160156 -1.71445313 3.60070312 -1.53515625 2.84765625 C-1 1 -1 1 0 0 Z " fill="#272728" transform="translate(228,385)"/>
<path d="M0 0 C0.33 0.66 0.66 1.32 1 2 C0.05607981 3.69905634 -0.95650161 5.36021682 -2 7 C-3.0150089 8.99242489 -4.01873444 10.99074195 -5 13 C-5.66 13 -6.32 13 -7 13 C-5.58832253 7.73829306 -3.25149768 4.27828642 0 0 Z " fill="#5E5E5E" transform="translate(68,358)"/>
<path d="M0 0 C0.93423645 3.01031744 1.04449911 3.86650268 0 7 C-1.32 7 -2.64 7 -4 7 C-2.92598892 4.08482708 -2.22189824 2.22189824 0 0 Z " fill="#030303" transform="translate(101,372)"/>
<path d="M0 0 C1.32 0.66 2.64 1.32 4 2 C2.9024777 4.99324263 2.32317108 5.84610901 -0.625 7.25 C-1.40875 7.4975 -2.1925 7.745 -3 8 C-1.125 2.25 -1.125 2.25 0 0 Z " fill="#454547" transform="translate(57,377)"/>
<path d="M0 0 C0.33 0 0.66 0 1 0 C1.625 3.375 1.625 3.375 2 7 C1.34 7.66 0.68 8.32 0 9 C-0.64767793 11.57061311 -0.64767793 11.57061311 -1 14 C-1.33 14 -1.66 14 -2 14 C-2.21192221 8.80790596 -1.5912689 4.873261 0 0 Z " fill="#6A6969" transform="translate(48,401)"/>
<path d="M0 0 C2.475 0.99 2.475 0.99 5 2 C4.67 2.99 4.34 3.98 4 5 C3.34 5 2.68 5 2 5 C1.67 5.66 1.34 6.32 1 7 C-0.0625 4.625 -0.0625 4.625 -1 2 C-0.67 1.34 -0.34 0.68 0 0 Z " fill="#4C4949" transform="translate(117,130)"/>
<path d="M0 0 C0.33 0.99 0.66 1.98 1 3 C0.01 4.485 0.01 4.485 -1 6 C-1.66 6 -2.32 6 -3 6 C-3 6.66 -3 7.32 -3 8 C-3.66 7.67 -4.32 7.34 -5 7 C-4.67 5.68 -4.34 4.36 -4 3 C-2.68 2.67 -1.36 2.34 0 2 C0 1.34 0 0.68 0 0 Z " fill="#5B5B5A" transform="translate(482,272)"/>
<path d="M0 0 C0.33 0.99 0.66 1.98 1 3 C0.00664799 4.67063747 -0.99431758 6.33675599 -2 8 C-2.71401232 11.19395026 -2.71401232 11.19395026 -3 14 C-3.33 14 -3.66 14 -4 14 C-4.31549088 8.7418187 -3.70016294 5.53627373 -1 1 C-0.67 0.67 -0.34 0.34 0 0 Z " fill="#636362" transform="translate(381,220)"/>
<path d="M0 0 C0.99 0.33 1.98 0.66 3 1 C4.1875 3.5625 4.1875 3.5625 5 6 C0.125 4.25 0.125 4.25 -1 2 C-0.67 1.34 -0.34 0.68 0 0 Z " fill="#252525" transform="translate(443,218)"/>
<path d="M0 0 C2.97 0.495 2.97 0.495 6 1 C4.35 2.65 2.7 4.3 1 6 C0.34 5.67 -0.32 5.34 -1 5 C-0.67 3.35 -0.34 1.7 0 0 Z " fill="#464544" transform="translate(218,394)"/>
<path d="M0 0 C1.32 0.99 2.64 1.98 4 3 C2.35 4.32 0.7 5.64 -1 7 C-1.04254356 5.00045254 -1.04080783 2.99958364 -1 1 C-0.67 0.67 -0.34 0.34 0 0 Z " fill="#313131" transform="translate(98,321)"/>
<path d="M0 0 C0.66 0.33 1.32 0.66 2 1 C1.67 2.65 1.34 4.3 1 6 C-0.32 5.67 -1.64 5.34 -3 5 C-2.01 3.35 -1.02 1.7 0 0 Z " fill="#272726" transform="translate(77,356)"/>
<path d="M0 0 C0.66 0.33 1.32 0.66 2 1 C1.25 5.75 1.25 5.75 -1 8 C-1.625 5.6875 -1.625 5.6875 -2 3 C-1.34 2.01 -0.68 1.02 0 0 Z " fill="#2F2E2D" transform="translate(454,130)"/>
<path d="M0 0 C1.32 0.99 2.64 1.98 4 3 C4.66 2.34 5.32 1.68 6 1 C6.33 2.65 6.66 4.3 7 6 C2.32307692 4.52307692 2.32307692 4.52307692 0.6875 1.875 C0.460625 1.25625 0.23375 0.6375 0 0 Z " fill="#040303" transform="translate(289,408)"/>
<path d="M0 0 C2.97 0.495 2.97 0.495 6 1 C5.67 2.32 5.34 3.64 5 5 C5 4.01 5 3.02 5 2 C4.01 2.66 3.02 3.32 2 4 C1.01 3.67 0.02 3.34 -1 3 C-0.67 2.01 -0.34 1.02 0 0 Z " fill="#5D5D59" transform="translate(78,347)"/>
<path d="M0 0 C0.33 0 0.66 0 1 0 C0.67 4.29 0.34 8.58 0 13 C-0.33 13 -0.66 13 -1 13 C-1.2236337 11.58566794 -1.42826476 10.16832382 -1.625 8.75 C-1.74101562 7.96109375 -1.85703125 7.1721875 -1.9765625 6.359375 C-2.00319395 3.67847541 -1.36592084 2.27305911 0 0 Z " fill="#717171" transform="translate(163,321)"/>
<path d="M0 0 C0 1.32 0 2.64 0 4 C-0.99 3.67 -1.98 3.34 -3 3 C-5.00875442 3.27571139 -7.01178687 3.60235737 -9 4 C-6.43425105 1.43425105 -3.68548192 0 0 0 Z " fill="#636363" transform="translate(431,296)"/>
<path d="M0 0 C2.475 0.495 2.475 0.495 5 1 C4.67 2.65 4.34 4.3 4 6 C2.68 5.34 1.36 4.68 0 4 C0 2.68 0 1.36 0 0 Z " fill="#252524" transform="translate(285,194)"/>
<path d="" fill="#FFFFFF" transform="translate(0,0)"/>
<path d="" fill="#FFFFFF" transform="translate(0,0)"/>
<path d="" fill="#FFFFFF" transform="translate(0,0)"/>
<path d="" fill="#FFFFFF" transform="translate(0,0)"/>
<path d="" fill="#FFFFFF" transform="translate(0,0)"/>
<path d="" fill="#FFFFFF" transform="translate(0,0)"/>
<path d="" fill="#FFFFFF" transform="translate(0,0)"/>
<path d="" fill="#FFFFFF" transform="translate(0,0)"/>
<path d="" fill="#FFFFFF" transform="translate(0,0)"/>
<path d="" fill="#FFFFFF" transform="translate(0,0)"/>
<path d="" fill="#FFFFFF" transform="translate(0,0)"/>
<path d="" fill="#FFFFFF" transform="translate(0,0)"/>
<path d="" fill="#FFFFFF" transform="translate(0,0)"/>
<path d="" fill="#FFFFFF" transform="translate(0,0)"/>
<path d="" fill="#FFFFFF" transform="translate(0,0)"/>
<path d="" fill="#FFFFFF" transform="translate(0,0)"/>
<path d="" fill="#FFFFFF" transform="translate(0,0)"/>
<path d="" fill="#FFFFFF" transform="translate(0,0)"/>
<path d="" fill="#FFFFFF" transform="translate(0,0)"/>
<path d="" fill="#FFFFFF" transform="translate(0,0)"/>
<path d="" fill="#FFFFFF" transform="translate(0,0)"/>
<path d="" fill="#FFFFFF" transform="translate(0,0)"/>
<path d="" fill="#FFFFFF" transform="translate(0,0)"/>
<path d="" fill="#FFFFFF" transform="translate(0,0)"/>
<path d="" fill="#FFFFFF" transform="translate(0,0)"/>
<path d="" fill="#FFFFFF" transform="translate(0,0)"/>
<path d="" fill="#FFFFFF" transform="translate(0,0)"/>
<path d="" fill="#FFFFFF" transform="translate(0,0)"/>
<path d="" fill="#FFFFFF" transform="translate(0,0)"/>
<path d="" fill="#FFFFFF" transform="translate(0,0)"/>
<path d="" fill="#FFFFFF" transform="translate(0,0)"/>
<path d="" fill="#FFFFFF" transform="translate(0,0)"/>
<path d="" fill="#FFFFFF" transform="translate(0,0)"/>
<path d="" fill="#FFFFFF" transform="translate(0,0)"/>
<path d="" fill="#FFFFFF" transform="translate(0,0)"/>
<path d="" fill="#FFFFFF" transform="translate(0,0)"/>
<path d="" fill="#FFFFFF" transform="translate(0,0)"/>
<path d="" fill="#FFFFFF" transform="translate(0,0)"/>
<path d="" fill="#FFFFFF" transform="translate(0,0)"/>
<path d="" fill="#FFFFFF" transform="translate(0,0)"/>
<path d="" fill="#FFFFFF" transform="translate(0,0)"/>
<path d="" fill="#FFFFFF" transform="translate(0,0)"/>
<path d="" fill="#FFFFFF" transform="translate(0,0)"/>
<path d="" fill="#FFFFFF" transform="translate(0,0)"/>
<path d="" fill="#FFFFFF" transform="translate(0,0)"/>
<path d="" fill="#FFFFFF" transform="translate(0,0)"/>
<path d="" fill="#FFFFFF" transform="translate(0,0)"/>
<path d="" fill="#FFFFFF" transform="translate(0,0)"/>
<path d="" fill="#FFFFFF" transform="translate(0,0)"/>
<path d="" fill="#FFFFFF" transform="translate(0,0)"/>
<path d="" fill="#FFFFFF" transform="translate(0,0)"/>
<path d="" fill="#FFFFFF" transform="translate(0,0)"/>
<path d="" fill="#FFFFFF" transform="translate(0,0)"/>
<path d="" fill="#FFFFFF" transform="translate(0,0)"/>
<path d="" fill="#FFFFFF" transform="translate(0,0)"/>
<path d="" fill="#FFFFFF" transform="translate(0,0)"/>
</svg>
