<?xml version="1.0" encoding="UTF-8"?>
<svg version="1.1" xmlns="http://www.w3.org/2000/svg" width="992" height="251">
<path d="M0 0 C0.69617432 0.33741211 1.39234863 0.67482422 2.10961914 1.02246094 C6.5490155 3.20186889 10.83181415 5.56532528 15.0625 8.125 C15.69881348 8.50897949 16.33512695 8.89295898 16.99072266 9.28857422 C27.3966409 15.62405475 37.54174726 22.30752088 47 30 C48.70722913 31.37637077 50.41559857 32.75132809 52.125 34.125 C53.37216797 35.12853516 53.37216797 35.12853516 54.64453125 36.15234375 C56.66244685 37.7352195 58.70445221 39.2287858 60.8125 40.6875 C63.90016643 42.92757173 66.33905116 45.27569524 69 48 C69.76183594 48.56332031 70.52367187 49.12664062 71.30859375 49.70703125 C77.73197587 54.62728183 77.73197587 54.62728183 78.578125 58.9609375 C78.56406119 61.69634946 78.40260625 64.29607654 78 67 C74.38539613 64.99748427 71.70403183 62.87614023 68.875 59.875 C64.77725751 55.68243372 60.45448141 51.97559361 55.87890625 48.31640625 C52.91323624 45.93018872 50.02171331 43.46926681 47.125 41 C39.58407836 34.70284076 31.60189082 29.13784685 23.1875 24.0625 C22.135625 23.381875 21.08375 22.70125 20 22 C20 21.34 20 20.68 20 20 C19.16339844 19.75636719 18.32679687 19.51273438 17.46484375 19.26171875 C13.52813653 17.82817148 10.16137708 15.9289656 6.5625 13.8125 C-11.01225995 3.75005657 -33.80245487 -8.26160339 -54.625 -4.3125 C-59.25669028 -2.51128711 -61.77070201 -0.04882998 -64.3125 4.1875 C-68.23784219 20.24571804 -59.16847002 36.5260207 -51.25390625 49.96484375 C-50.84011719 50.63644531 -50.42632812 51.30804688 -50 52 C-44.46674801 51.37122136 -39.24021532 50.07948702 -33.8671875 48.62109375 C-31.13987261 48.03029938 -28.77850712 47.88295666 -26 48 C-26 49.98 -26 51.96 -26 54 C-31.94 55.98 -37.88 57.96 -44 60 C-40.71199404 65.26080954 -38.0343564 69.21258307 -34.125 73.75 C-30.60867363 78.30669401 -29.42737946 80.98223708 -29.9375 86.75 C-30.24199809 88.5093223 -30.57854881 90.26497466 -31 92 C-33 90.625 -33 90.625 -35 89 C-35 88.34 -35 87.68 -35 87 C-35.99 86.67 -36.98 86.34 -38 86 C-39.70016231 83.84333972 -41.26871068 81.70114287 -42.8125 79.4375 C-43.70110623 78.16226072 -44.59042669 76.88751882 -45.48046875 75.61328125 C-45.91020996 74.99404785 -46.33995117 74.37481445 -46.78271484 73.73681641 C-49.10293042 70.42634437 -51.55424509 67.21809856 -54 64 C-64.30733796 67.0135275 -64.30733796 67.0135275 -73 73 C-73.5465625 73.40476562 -74.093125 73.80953125 -74.65625 74.2265625 C-78.67922515 77.27788687 -81.19029329 79.83394502 -82.0234375 84.9296875 C-81.97664579 89.06295484 -80.61179768 91.83770633 -78 95 C-72.81815044 99.48878725 -67.2590721 103.18604742 -61 106 C-58.58382499 105.73153611 -57.1644051 105.08220255 -55 104 C-50.1403232 103.47532693 -46.25070737 103.24436429 -42 105.8125 C-38.95995659 109.13754748 -38 110.3751327 -38 115 C-35.69 115.33 -33.38 115.66 -31 116 C-30.94956543 115.35893311 -30.89913086 114.71786621 -30.84716797 114.05737305 C-30.21917258 106.5940945 -29.22464618 99.21927642 -28.125 91.8125 C-26.63495484 81.59911492 -25.25804452 71.3800606 -24.01098633 61.13427734 C-23.22565163 54.70404206 -22.34497847 48.30120548 -21.33203125 41.90234375 C-20.72252379 36.57453145 -20.38812981 31.81133982 -23 27 C-24.485 26.01 -24.485 26.01 -26 25 C-26 24.34 -26 23.68 -26 23 C-26.598125 22.731875 -27.19625 22.46375 -27.8125 22.1875 C-29.99847854 21.00082594 -31.41332594 19.90400887 -33 18 C-33 17.34 -33 16.68 -33 16 C-27.71642089 15.92551884 -22.43315137 15.87124205 -17.14916992 15.83520508 C-15.35386833 15.82017284 -13.55860312 15.79974143 -11.76342773 15.77368164 C-9.17422474 15.73705214 -6.58550972 15.7202179 -3.99609375 15.70703125 C-2.80348183 15.68380547 -2.80348183 15.68380547 -1.58677673 15.66011047 C7.13941803 15.65750966 13.57377023 19.19571679 20 25 C22.16216584 27.46675269 23.99571346 30.08462748 25.8125 32.8125 C26.31386475 33.54299561 26.81522949 34.27349121 27.33178711 35.02612305 C32.34107084 42.37333403 37.14184765 49.8596198 41.91455078 57.36181641 C43.06600928 59.14858794 43.06600928 59.14858794 44.80859375 61.29296875 C46 63 46 63 46 66 C46.66 66 47.32 66 48 66 C49.58875965 68.32508864 51.05696798 70.64861568 52.5 73.0625 C53.40039156 74.53765167 54.30278631 76.01158224 55.20703125 77.484375 C55.66932129 78.23783203 56.13161133 78.99128906 56.60791016 79.76757812 C58.72710514 83.16602058 60.94958483 86.4914719 63.1875 89.8125 C67.22438664 95.81498287 71.15324744 101.87321861 75 108 C76.41330776 102.61251915 77.55829241 97.26247906 78.375 91.75 C78.4972998 90.92935059 78.61959961 90.10870117 78.74560547 89.26318359 C80.06303843 80.0737223 81.094095 70.85007852 82.125 61.625 C82.21126648 60.85845093 82.29753296 60.09190186 82.38641357 59.30212402 C82.95715622 54.20454337 83.49638535 49.10465074 84 44 C84.06791748 43.32266815 84.13583496 42.6453363 84.20581055 41.94747925 C84.39249991 40.03001904 84.55995879 38.11071596 84.7265625 36.19140625 C84.87085693 34.56247437 84.87085693 34.56247437 85.01806641 32.90063477 C84.99114984 28.5790703 83.62485758 25.38333916 81 22 C80.45859375 21.49855469 79.9171875 20.99710938 79.359375 20.48046875 C78 19 78 19 78 16 C91.53 16 105.06 16 119 16 C119 22 119 22 117.12890625 24.6484375 C114.09735189 29.42104968 113.68383359 34.08446379 112.9375 39.625 C112.7725 40.76437012 112.6075 41.90374023 112.4375 43.07763672 C111.09731981 52.59525359 110.10169178 62.14316387 109.13989258 71.70507812 C108.29811249 79.84808072 107.07484797 87.84698358 105.62548828 95.90063477 C103.45704078 108.41382824 102.15360126 121.05293682 100.75048828 133.67041016 C100.6491156 134.56280899 100.54774292 135.45520782 100.44329834 136.37464905 C100.25263193 138.05460323 100.0667939 139.73511552 99.88677979 141.41624451 C99.34768035 146.13853264 98.43355654 150.46593441 97 155 C90.04853521 157.22160215 79.38676137 157.21649886 72.5 154.875 C60.18372382 148.27699491 53.51863155 138.518956 46.40234375 126.87890625 C44.55281757 123.86376693 42.62116067 120.94067547 40.5625 118.0625 C33.54621841 108.24302317 27.20462515 97.92666979 20.7421875 87.73828125 C17.98065432 83.39784457 15.19235165 79.0746951 12.40625 74.75 C9.25233221 69.84515276 6.1281124 64.92132619 3 60 C2.89453857 60.82910889 2.78907715 61.65821777 2.68041992 62.51245117 C2.18441283 66.40434406 1.68668025 70.29601304 1.1875 74.1875 C1.09663116 74.89594055 1.00576233 75.6043811 0.91213989 76.33428955 C-0.18318668 84.85735597 -1.31472602 93.37268674 -2.5625 101.875 C-3.69657384 109.69924857 -4.75747561 117.5314978 -5.75 125.375 C-5.88994385 126.42800293 -6.0298877 127.48100586 -6.17407227 128.56591797 C-6.8387482 133.95035889 -7.31213923 138.70232557 -6 144 C-3.666508 146.83411155 -3.666508 146.83411155 -1 149 C1 151 1 151 1 155 C-4.38195986 155.90482048 -9.5446932 156.13304442 -14.99609375 156.09765625 C-15.82963882 156.0962413 -16.6631839 156.09482635 -17.52198792 156.09336853 C-20.16052986 156.08781168 -22.79898409 156.0752674 -25.4375 156.0625 C-27.23632689 156.05747942 -29.03515513 156.05291749 -30.83398438 156.04882812 C-35.22268958 156.03785643 -39.61132996 156.02062196 -44 156 C-44.09130859 153.59008789 -44.09130859 153.59008789 -44 151 C-42.5390625 149.55859375 -42.5390625 149.55859375 -40.625 148.4375 C-37.5845312 146.6294846 -36.21709588 145.36258117 -35 142 C-34.5755828 139.46736663 -34.21998352 136.9847644 -33.9375 134.4375 C-33.11452206 127.34356618 -33.11452206 127.34356618 -32 124 C-35.21326257 123.0508054 -35.21326257 123.0508054 -39 123 C-41.04119788 124.61594832 -43.04072937 126.2856382 -45 128 C-48.5998994 128.94734195 -51.05234434 129.19834653 -54.6875 128.4375 C-57.8681317 126.46035057 -59.184903 124.25465669 -61 121 C-61.2784375 119.515 -61.2784375 119.515 -61.5625 118 C-63.63740019 113.66977352 -66.85494193 112.66944018 -71.046875 110.5625 C-78.53002683 106.60316041 -87.22457644 100.32627068 -90 92 C-90.54751277 85.86067648 -91.02001965 79.81773809 -87.3828125 74.578125 C-79.62354995 65.72292141 -69.63883636 60.61088763 -59 56 C-59.65226562 54.89785156 -60.30453125 53.79570313 -60.9765625 52.66015625 C-69.62908312 37.74635707 -77.81238451 21.71656764 -76 4 C-73.59066573 -3.41795033 -69.62876012 -9.11842068 -62.625 -12.75 C-41.87329829 -19.90575921 -18.47486037 -9.0397121 0 0 Z " fill="#030303" transform="translate(95,43)"/>
<path d="M0 0 C1.36125 0.5259375 1.36125 0.5259375 2.75 1.0625 C7.39887894 5.06570131 9.56347042 10.16430382 10.48828125 16.171875 C11.46228504 40.32716888 -3.56756164 63.0554455 -17 82 C-17.66 82.99 -18.32 83.98 -19 85 C-18.37544922 85.27150879 -17.75089844 85.54301758 -17.10742188 85.82275391 C-14.23345748 87.07944855 -11.36681155 88.35207732 -8.5 89.625 C-7.51773438 90.05167969 -6.53546875 90.47835937 -5.5234375 90.91796875 C3.75700501 95.06323307 14.59196432 101.00190644 18.9375 110.75 C20.87177337 116.76006368 20.18972974 122.57295132 17.4375 128.1875 C6.52120345 140.78322679 -8.58589245 149.16998146 -25 152 C-24.61070312 152.58523437 -24.22140625 153.17046875 -23.8203125 153.7734375 C-11.84827596 172.14527237 -0.56155422 190.35101736 -2 213 C-3.11122314 218.05737776 -6.03896178 222.67196063 -10 226 C-18.69984896 231.43530215 -28.74785797 231.03630455 -38.55859375 229.41015625 C-65.24640763 223.06705043 -92.76956352 207.57902704 -113.7734375 190.1328125 C-115.94598735 188.73857692 -115.94598735 188.73857692 -118.33984375 189.46484375 C-121.87124483 191.50278887 -124.98764839 193.91931807 -128.1875 196.4375 C-136.06018863 202.47998955 -144.26388151 207.71666657 -152.82568359 212.72265625 C-154.88215251 213.93076824 -156.92019955 215.16541561 -158.95703125 216.40625 C-166.33401917 220.81938613 -173.8498041 224.34794475 -181.875 227.4375 C-182.7306958 227.7677417 -183.5863916 228.0979834 -184.46801758 228.43823242 C-196.29419225 232.80884983 -208.11650568 235.38687583 -220 230 C-224.75214855 227.00408026 -227.0137127 223.44165988 -228.55859375 218.05078125 C-232.07395733 201.71833986 -222.30218399 184.41122029 -214 171 C-213.34 170.01 -212.68 169.02 -212 168 C-209.5625 168.375 -209.5625 168.375 -207 169 C-206.505 169.99 -206.505 169.99 -206 171 C-207.17984782 173.60400757 -208.41344071 176.10293092 -209.75 178.625 C-215.67246737 189.89883968 -219.02747772 200.0607467 -218 213 C-216.9491814 216.36166855 -216.4888627 217.63978538 -213.625 219.75 C-204.46973761 224.10964876 -193.97431584 221.47917284 -184.78857422 218.27514648 C-164.70345079 210.82553082 -146.06952971 198.77790079 -129 186 C-128.21625 185.41347656 -127.4325 184.82695312 -126.625 184.22265625 C-126.08875 183.81917969 -125.5525 183.41570312 -125 183 C-133.1856945 176.1011057 -133.1856945 176.1011057 -141.5625 169.4375 C-143.04190726 168.29197732 -144.52105519 167.14611967 -146 166 C-146.97839844 165.24460938 -147.95679688 164.48921875 -148.96484375 163.7109375 C-149.96644531 162.91945312 -150.96804687 162.12796875 -152 161.3125 C-152.928125 160.58675781 -153.85625 159.86101562 -154.8125 159.11328125 C-157.05887028 156.94312711 -157.74687455 156.05602673 -158 153 C-157.72949547 150.99053778 -157.40632091 148.98645776 -157 147 C-153.69382834 148.06964377 -151.86071089 149.12874333 -149.27197266 151.52148438 C-145.92061132 154.36507929 -143.18725487 154.72821499 -138.7734375 154.96875 C-138.10333649 155.01640503 -137.43323547 155.06406006 -136.74282837 155.11315918 C-133.90252498 155.3146279 -131.06008572 155.46326577 -128.21679688 155.61572266 C-126.12980957 155.73531942 -124.0460202 155.88254224 -121.9609375 156.03125 C-120.72134277 156.09892578 -119.48174805 156.16660156 -118.20458984 156.23632812 C-115 157 -115 157 -112.56494141 159.37304688 C-111 162 -111 162 -111 165 C-122.385 164.505 -122.385 164.505 -134 164 C-132.123125 165.588125 -130.24625 167.17625 -128.3125 168.8125 C-127.44105347 169.55463745 -127.44105347 169.55463745 -126.55200195 170.31176758 C-123.51152361 172.86415963 -120.46531357 175.06482489 -117 177 C-114.03 174.69 -111.06 172.38 -108 170 C-106.35 171.65 -104.7 173.3 -103 175 C-104.41154766 178.41124018 -106.06221223 179.8456223 -109 182 C-109 182.66 -109 183.32 -109 184 C-106.19264098 186.18275522 -103.08034161 187.9322873 -100.03808594 189.76904297 C-98.56446037 190.65907892 -97.09416752 191.55464074 -95.62597656 192.45361328 C-83.08639169 200.11984873 -70.44939277 207.06604338 -57 213 C-56.02804688 213.43957031 -55.05609375 213.87914062 -54.0546875 214.33203125 C-43.90921099 218.68708306 -30.89912505 222.77160101 -20.0625 218.8125 C-16.1532077 216.49883721 -14.8873864 214.33947323 -13.3125 210.1875 C-10.75188828 192.26321793 -21.58546675 173.97607073 -31.1171875 159.55859375 C-32 158 -32 158 -32 156 C-38.33881314 156.62197123 -44.67094142 157.28542887 -51 158 C-50.67 155.69 -50.34 153.38 -50 151 C-46.7 149.68 -43.4 148.36 -40 147 C-40.5775 146.31035156 -41.155 145.62070313 -41.75 144.91015625 C-48.56963761 136.2790524 -48.56963761 136.2790524 -48.5 130.8125 C-48.335 129.554375 -48.17 128.29625 -48 127 C-44 127 -44 127 -41.81640625 129.16015625 C-41.07261719 130.11792969 -40.32882813 131.07570312 -39.5625 132.0625 C-38.78132812 133.06023437 -38.00015625 134.05796875 -37.1953125 135.0859375 C-34.73410446 138.35295031 -32.32045314 141.63160028 -30 145 C-21.53404565 142.68604664 -13.51313078 140.08610779 -5.75 135.9375 C-5.13116943 135.60943359 -4.51233887 135.28136719 -3.87475586 134.94335938 C-0.37917343 133.00582731 2.23068416 130.85188718 5 128 C5.66 128 6.32 128 7 128 C7.309375 127.195625 7.61875 126.39125 7.9375 125.5625 C9 123 9 123 10 122 C10.65596845 116.64292429 9.7178282 113.31318027 6.734375 108.98046875 C-1.19154193 99.92992847 -13.42835668 95.08668978 -25 93 C-25.71285156 93.9178125 -26.42570313 94.835625 -27.16015625 95.78125 C-39.78091831 111.97800494 -39.78091831 111.97800494 -43 115 C-43.66 115 -44.32 115 -45 115 C-44.38541435 104.47522067 -41.96970632 97.94222348 -35 90 C-36.98 89.01 -38.96 88.02 -41 87 C-41 84.69 -41 82.38 -41 80 C-37.04 80.66 -33.08 81.32 -29 82 C-15.82209974 64.23143777 1.12929011 41.34281268 -2 18 C-3.56635015 13.6925371 -5.14385673 11.41516341 -9 9 C-27.3496088 4.51201519 -47.5708234 14.90595023 -63 24 C-66.63291951 26.20571343 -70.22853441 28.46572451 -73.8125 30.75 C-75.26499146 31.67534546 -75.26499146 31.67534546 -76.74682617 32.61938477 C-83.75446442 37.12080885 -90.46958912 41.82495742 -97 47 C-98.68695593 48.31319922 -100.37442121 49.6257445 -102.0625 50.9375 C-102.75472656 51.48277344 -103.44695312 52.02804688 -104.16015625 52.58984375 C-108.66418577 56.04197678 -108.66418577 56.04197678 -111 55.75 C-113 55 -113 55 -116 53 C-114.36034709 48.08104127 -110.0912706 46.00262805 -106 43 C-104.93265625 42.21085205 -104.93265625 42.21085205 -103.84375 41.40576172 C-101.42174512 39.61764093 -98.99330984 37.83862969 -96.5625 36.0625 C-95.7569165 35.47033691 -94.95133301 34.87817383 -94.12133789 34.26806641 C-93.36071045 33.71683105 -92.60008301 33.1655957 -91.81640625 32.59765625 C-90.78688843 31.84754272 -90.78688843 31.84754272 -89.73657227 31.08227539 C-88 30 -88 30 -86 30 C-86 29.34 -86 28.68 -86 28 C-84.6015625 26.90600586 -84.6015625 26.90600586 -82.625 25.71484375 C-81.89482666 25.27092285 -81.16465332 24.82700195 -80.41235352 24.36962891 C-79.61627686 23.89702637 -78.8202002 23.42442383 -78 22.9375 C-77.18781006 22.44942871 -76.37562012 21.96135742 -75.53881836 21.45849609 C-23.2526955 -9.80034085 -23.2526955 -9.80034085 0 0 Z " fill="#020202" transform="translate(251,11)"/>
<path d="M0 0 C1.57394531 0.02707031 1.57394531 0.02707031 3.1796875 0.0546875 C15.05407984 0.59013755 27.41203801 5.16589437 35.77734375 13.84375 C42.74767303 22.43310442 43.39348038 31.05251522 43.0625 41.8125 C42.63610605 55.98530434 42.63610605 55.98530434 46.07836914 69.62036133 C47.41919714 73.08236145 46.90485769 75.44520193 46 79 C43.25075917 82.80664115 39.49164022 84.81754169 35 86 C30.11436721 86.6336055 26.35245968 86.76075857 22 84.3125 C19.93513152 81.92499582 19.08813423 79.92921849 18 77 C17.39414062 77.39832031 16.78828125 77.79664063 16.1640625 78.20703125 C15.32617188 78.73683594 14.48828125 79.26664062 13.625 79.8125 C12.81289063 80.33457031 12.00078125 80.85664063 11.1640625 81.39453125 C3.45053084 85.30843435 -3.92035788 86.48905728 -12.5 86.375 C-13.37269531 86.38660156 -14.24539063 86.39820313 -15.14453125 86.41015625 C-24.02886968 86.3706703 -32.2701316 84.52933996 -39.2421875 78.78515625 C-44.63972943 73.30365255 -46.70877635 67.30992376 -47.0703125 59.70703125 C-46.86934828 51.96990888 -44.97528582 46.03461844 -39.4296875 40.40625 C-30.03898006 31.81564768 -18.3696625 30.3704826 -6.09765625 30.671875 C1.00074537 31.06706792 8.07509627 33.05006418 14 37 C13.84639084 33.73231433 13.39781643 30.9748401 12 28 C6.02768801 23.4941567 -1.82246832 23.04666246 -9 24 C-12.85623776 24.9407436 -16.65111714 26.00743171 -20.46875 27.09375 C-26.03320104 28.52179496 -30.59352847 29.25555036 -35.875 26.5 C-38.63690941 23.25069481 -40.22022461 20.20753802 -41 16 C-40.19871144 11.37033276 -38.50474807 9.02819885 -35 6 C-31.1169589 4.30255632 -27.06301844 3.19407304 -23 2 C-22.32839844 1.77054687 -21.65679687 1.54109375 -20.96484375 1.3046875 C-14.18772537 -0.81036923 -7.01054983 -0.21593069 0 0 Z M-17.7578125 52.359375 C-19.35212239 54.122095 -19.35212239 54.122095 -19 57.5 C-18.35260708 61.06838599 -18.35260708 61.06838599 -15.828125 62.69140625 C-10.1191619 65.33298448 -3.21583428 64.97574459 2.7421875 63.16796875 C6.07735664 61.70814881 8.96813653 60.02124231 12 58 C10.25512611 53.81756358 8.2862646 52.65679142 4.2734375 50.82421875 C-2.52353324 48.36002489 -11.73533811 47.7019948 -17.7578125 52.359375 Z " fill="#000000" transform="translate(386,97)"/>
<path d="M0 0 C4.50186674 4.44429811 6.70171106 8.84278594 7.30078125 15.18359375 C7.3342276 24.47053072 6.16736246 30.42298361 -0.2109375 37.4296875 C-8.5274883 44.72936746 -20.36623147 45.42237835 -30.86938477 44.74169922 C-37.57417325 44.14469205 -43.68256865 42.32576668 -50 40 C-48.33609768 44.66361354 -46.17053664 47.3363006 -42 50 C-33.5910046 53.67893549 -23.24567043 53.13659128 -14.75 50.0625 C-12.45038536 49.11339869 -10.22418787 48.11209394 -8 47 C-1.01167658 46.19806125 -1.01167658 46.19806125 1.6015625 48.26953125 C5.09128271 52.46331782 6.45293303 55.49135404 6.32421875 60.9765625 C5.73491383 64.65439324 3.95700048 65.85472514 1 68 C-14.6692464 76.66594978 -36.36748671 78.26457724 -53.5625 73.375 C-64.68535188 69.08885355 -71.83120947 62.39914224 -76.9296875 51.625 C-81.84613244 39.56714965 -81.46642289 25.12314784 -77 13 C-71.95873166 2.21474107 -64.65605871 -3.71919264 -53.69140625 -7.875 C-36.40382117 -13.62830831 -13.86579335 -12.93282813 0 0 Z M-46.5390625 16.53515625 C-47.75555678 17.9725224 -48.88643226 19.48149854 -50 21 C-43.25707675 25.09863962 -36.8980325 26.29397143 -29 26 C-23.72481374 24.65903202 -23.72481374 24.65903202 -20 21 C-19.92727438 18.44539786 -19.92727438 18.44539786 -21 16 C-25.36099867 11.92973458 -29.72485894 11.70596592 -35.43359375 11.7890625 C-39.84495905 12.15164047 -43.36920917 13.37334824 -46.5390625 16.53515625 Z " fill="#000000" transform="translate(975,108)"/>
<path d="M0 0 C6.08422536 6.08422536 7.41335375 10.68896613 7.6875 19.1875 C7.45625953 26.88958658 6.43456691 31.97672189 0.8125 37.4375 C-8.10978473 44.56881517 -19.09639101 46.30479897 -30.2421875 45.3984375 C-37.05028061 44.53461493 -43.27465504 43.11995843 -49.6875 40.6875 C-47.18248435 46.48858888 -44.59217432 49.45146837 -38.75 51.9375 C-27.78852977 54.56443186 -17.59243614 52.63996807 -7.6875 47.6875 C-0.69917658 46.88556125 -0.69917658 46.88556125 1.9140625 48.95703125 C5.40378271 53.15081782 6.76543303 56.17885404 6.63671875 61.6640625 C6.04741383 65.34189324 4.26950048 66.54222514 1.3125 68.6875 C-14.34910017 77.349221 -35.98105983 78.91484535 -53.1875 74.125 C-63.42943496 70.16441457 -70.83336533 63.98626753 -75.9375 54.3203125 C-78.84155655 47.36267702 -79.06926125 40.4965071 -79.125 33.0625 C-79.13515137 32.09691162 -79.14530273 31.13132324 -79.15576172 30.13647461 C-79.02001672 18.92604093 -76.0826377 8.98249013 -67.94140625 0.96875 C-49.95263765 -13.69153543 -17.97535555 -15.10556003 0 0 Z M-48.6875 19.6875 C-47.70072164 22.37871371 -47.11675098 23.47364378 -44.5078125 24.7734375 C-41.37167458 25.78985893 -38.53503845 26.17438738 -35.25 26.4375 C-33.61224609 26.58445312 -33.61224609 26.58445312 -31.94140625 26.734375 C-27.40567987 26.6690344 -23.93950684 25.93950684 -20.6875 22.6875 C-20.18739476 19.72980823 -20.18739476 19.72980823 -20.6875 16.6875 C-24.11673885 13.25826115 -27.7181289 12.52543859 -32.4375 12.4375 C-39.30768355 12.51761876 -44.08248038 14.34567725 -48.6875 19.6875 Z " fill="#000000" transform="translate(719.6875,107.3125)"/>
<path d="M0 0 C1.45473372 2.31318083 2.15479314 4.3649433 3 7 C3.66 6.4225 4.32 5.845 5 5.25 C14.1918315 -1.64387363 24.2401814 -3.85491563 35.6875 -2.4375 C44.10199716 -0.83183508 51.41199239 2.11942075 56.75390625 9.03515625 C62.90022939 18.72669399 63.23926148 27.78002367 63.25 38.9375 C63.25100708 39.65298004 63.25201416 40.36846008 63.25305176 41.10562134 C63.2443933 50.19636322 62.9960589 59.16672402 61.75 68.1875 C61.64075195 69.0220874 61.53150391 69.8566748 61.41894531 70.71655273 C60.65477642 75.49461398 59.53260171 78.47424441 56 82 C51.50334198 84.24832901 45.24945822 83.72935884 40.56640625 82.2109375 C36.94978465 80.47230473 35.27979022 79.41968532 33 76 C32.99099075 73.51044402 33.09940302 71.15931114 33.3125 68.6875 C33.4205132 67.16024361 33.52721624 65.63289416 33.6328125 64.10546875 C33.69243164 63.2861084 33.75205078 62.46674805 33.81347656 61.62255859 C34.14813744 56.91715652 34.43014441 52.21020582 34.6875 47.5 C34.74784424 46.59338623 34.80818848 45.68677246 34.87036133 44.75268555 C35.22745279 38.03578895 34.98439573 31.45112301 31.5625 25.5 C26.82605061 22.72744426 21.2314558 22.43775037 15.8671875 23.37109375 C11.85084907 24.77072684 9.6745282 27.10566461 7.83276367 30.87939453 C4.41882564 39.57287614 3.550942 47.84436422 3.4375 57.125 C3.14618702 75.79060974 3.14618702 75.79060974 -0.6953125 81.53515625 C-3.86320525 83.54864741 -6.14351198 83.49768529 -9.875 83.4375 C-11.66550781 83.43556641 -11.66550781 83.43556641 -13.4921875 83.43359375 C-18.22593322 82.84846482 -21.6198306 81.3801694 -25 78 C-25.26742554 75.02850342 -25.26742554 75.02850342 -25.29052734 71.16699219 C-25.29724457 70.46432724 -25.30396179 69.76166229 -25.31088257 69.03770447 C-25.32992823 66.7073566 -25.33379056 64.37729594 -25.3359375 62.046875 C-25.34236288 60.42742799 -25.34909104 58.80798215 -25.35610962 57.1885376 C-25.36810021 53.78891308 -25.37178882 50.38939028 -25.37060547 46.98974609 C-25.37040263 42.64063303 -25.39765958 38.29217605 -25.43214989 33.94321823 C-25.4544322 30.5956729 -25.45844254 27.24828481 -25.45738602 23.90067291 C-25.45974171 22.29794309 -25.46856356 20.69520891 -25.48405075 19.09255219 C-25.50373063 16.84476973 -25.4978654 14.59839286 -25.48583984 12.35058594 C-25.48868988 11.07310486 -25.49153992 9.79562378 -25.49447632 8.47943115 C-24.90736431 4.34815989 -23.64747358 2.19463668 -21 -1 C-13.72411487 -4.02017873 -6.8329629 -4.07349711 0 0 Z " fill="#000000" transform="translate(469,100)"/>
<path d="M0 0 C6.7317023 3.83059211 6.7317023 3.83059211 8.05078125 6.46875 C8.56272762 12.61210649 8.07290212 15.52728722 4.05078125 20.46875 C3.57640625 21.066875 3.10203125 21.665 2.61328125 22.28125 C0.44942887 23.92577781 -1.25563144 24.15825002 -3.94921875 24.46875 C-6.4140625 23.76171875 -6.4140625 23.76171875 -8.88671875 22.65625 C-9.76199219 22.28242187 -10.63726563 21.90859375 -11.5390625 21.5234375 C-12.33441406 21.17539063 -13.12976563 20.82734375 -13.94921875 20.46875 C-20.30207231 17.9540788 -26.89775982 16.67957959 -33.57421875 18.40625 C-34.35796875 18.756875 -35.14171875 19.1075 -35.94921875 19.46875 C-35.91798932 21.43631452 -35.91798932 21.43631452 -34.94921875 23.46875 C-30.35791892 25.35887036 -25.63762167 26.08842871 -20.76171875 26.84375 C-10.99144944 28.48826119 -0.44919569 30.27312691 6.05078125 38.46875 C10.17544536 45.34319019 11.20526096 52.58500566 10.05078125 60.46875 C8.36301224 66.49043842 5.73914323 70.4648638 0.48828125 73.90625 C-9.77694812 79.09184971 -20.0323115 79.95137471 -31.38671875 79.84375 C-33.21686523 79.86115234 -33.21686523 79.86115234 -35.08398438 79.87890625 C-47.02008341 79.84083257 -58.74841333 78.07311761 -68.94921875 71.46875 C-70.56495546 68.23727658 -70.39709671 64.97201461 -69.94921875 61.46875 C-68.63542424 57.63628209 -66.81583664 54.49012108 -64.19921875 51.40625 C-58.0052458 48.82542794 -50.69443381 52.4232736 -44.78125 54.53125 C-39.39481413 56.31434601 -34.41208558 56.62443072 -28.76171875 56.59375 C-28.03791016 56.59761719 -27.31410156 56.60148437 -26.56835938 56.60546875 C-22.63005373 56.67329326 -22.63005373 56.67329326 -18.94921875 55.46875 C-18.29366756 52.94141765 -18.29366756 52.94141765 -17.94921875 50.46875 C-18.64893799 50.33823242 -19.34865723 50.20771484 -20.06958008 50.07324219 C-23.30217101 49.46461654 -26.5318717 48.84176618 -29.76171875 48.21875 C-30.86193359 48.01378906 -31.96214844 47.80882812 -33.09570312 47.59765625 C-53.41363387 43.64195292 -53.41363387 43.64195292 -59.94921875 36.46875 C-64.23262526 29.50476005 -65.94084419 21.4812935 -64.38671875 13.40625 C-62.69858173 7.89465034 -59.75687535 2.45424421 -54.98828125 -0.91796875 C-52.99381157 -1.94577018 -51.06356355 -2.781124 -48.94921875 -3.53125 C-48.03986572 -3.86987061 -47.1305127 -4.20849121 -46.19360352 -4.55737305 C-31.9501957 -8.83286057 -13.08117295 -6.7918143 0 0 Z " fill="#000000" transform="translate(874.94921875,103.53125)"/>
<path d="M0 0 C2.87467584 3.03553628 3.44108988 5.4054786 3.7734375 9.515625 C3.87309814 10.59448975 3.97275879 11.67335449 4.07543945 12.78491211 C4.17429443 13.92839111 4.27314941 15.07187012 4.375 16.25 C5.81714442 30.4475452 8.42566493 42.55866545 15.86328125 54.9609375 C17 57 17 57 17 59 C21.44685333 55.87073285 23.88457615 52.5468982 26.5625 47.9375 C26.95453613 47.26920166 27.34657227 46.60090332 27.75048828 45.91235352 C34.16967806 34.71031699 37.59328752 22.33092701 38.4375 9.4375 C38.71725102 6.39520763 39.08389033 4.82492452 40.4375 2 C45.0127531 -1.57092925 50.05773871 -2.20334387 55.76953125 -1.80859375 C62.17113547 -0.7682159 62.17113547 -0.7682159 64.76171875 1.6328125 C69.75876411 11.18552382 65.38698054 28.17018933 62.36572266 38.08056641 C56.43916295 56.07834962 47.12563949 72.32353427 30.22265625 82.01953125 C22.90485779 85.40768741 13.80087494 85.05926023 6.1875 82.9375 C-8.67551467 73.90311853 -16.7649533 59.83870488 -20.86083984 43.12890625 C-21.62898679 39.76160683 -22.33091059 36.38861412 -23 33 C-23.17200928 32.20029785 -23.34401855 31.4005957 -23.52124023 30.57666016 C-24.3255577 26.24786539 -24.46101287 21.89083053 -24.6875 17.5 C-24.74744141 16.56285156 -24.80738281 15.62570313 -24.86914062 14.66015625 C-25.31638969 6.02150988 -25.31638969 6.02150988 -23 2 C-20.43685494 -0.65807636 -17.87556312 -1.61678907 -14.203125 -2 C-9.41706958 -2 -4.556569 -1.47222478 0 0 Z " fill="#000000" transform="translate(567,99)"/>
<path d="M0 0 C2.89976347 1.3717142 3.93877859 2.45378531 6 5 C6 5.66 6 6.32 6 7 C6.88300781 6.4946875 7.76601563 5.989375 8.67578125 5.46875 C17.21618937 0.76674099 23.91020689 -1.92988638 33.7265625 0.7421875 C38.73870596 2.53118266 42.93022129 4.4976579 46 9 C46.92596967 15.3789022 45.70260819 18.79633444 42 24 C39.12344047 26.73273155 36.93177638 28.41394277 33 29 C31.09378009 28.24408521 29.18788913 27.48730591 27.28515625 26.72265625 C23.19478655 25.42912053 19.21647477 25.21621467 15 26 C10.7352672 29.1985496 8.38808544 32.56349839 7.55078125 37.8203125 C6.94646918 46.20142745 7.15219362 54.30434695 7.74609375 62.67578125 C8.66692972 76.55511714 8.66692972 76.55511714 6 81 C3.11048724 83.87883065 1.4873123 84.92796253 -2.59375 85.53125 C-3.8828125 85.5209375 -5.171875 85.510625 -6.5 85.5 C-7.7890625 85.5103125 -9.078125 85.520625 -10.40625 85.53125 C-14.48052952 84.9289652 -16.11984409 83.88015591 -19 81 C-22.25282586 74.49434828 -21.16060558 65.06354131 -21.16796875 57.94921875 C-21.17129715 56.81402298 -21.17462555 55.67882721 -21.17805481 54.50923157 C-21.183095 52.11821902 -21.18546404 49.7271995 -21.18530273 47.33618164 C-21.18748704 43.70902736 -21.20566826 40.08217865 -21.22460938 36.45507812 C-21.22754447 34.11979269 -21.22952849 31.78450584 -21.23046875 29.44921875 C-21.24124702 27.84550667 -21.24124702 27.84550667 -21.25224304 26.20939636 C-21.22780831 18.02000128 -21.20095746 9.08749243 -17.25 1.75 C-11.76602356 -1.20291039 -6.06793727 -0.90841634 0 0 Z " fill="#000000" transform="translate(760,98)"/>
<path d="M0 0 C4.14231524 3.96484054 4.67435092 7.59856644 4.796875 13.1015625 C4.82682556 13.91944244 4.85677612 14.73732239 4.88763428 15.57998657 C5.19298464 26.32235115 4.80360939 37.06858546 4.38574219 47.80273438 C4.24838169 51.41758846 4.1354245 55.03271819 4.0234375 58.6484375 C3.93896521 60.96099149 3.85308086 63.27349442 3.765625 65.5859375 C3.73422424 66.65983734 3.70282349 67.73373718 3.67047119 68.84017944 C3.26777938 78.19018574 3.26777938 78.19018574 0 82 C-3.75284085 84.5018939 -5.89806957 84.29930669 -10.375 84.3125 C-11.68210937 84.32925781 -12.98921875 84.34601563 -14.3359375 84.36328125 C-18.17616284 83.98253396 -20.01809765 83.4017868 -23 81 C-24.77136015 78.11653241 -25.22395165 76.14818139 -25.01171875 72.79296875 C-24.94259277 71.48150879 -24.94259277 71.48150879 -24.87207031 70.14355469 C-24.81116211 69.16805664 -24.75025391 68.19255859 -24.6875 67.1875 C-24.19064281 58.1402077 -23.9456154 49.12577098 -23.87890625 40.06640625 C-23.84601335 36.86633093 -23.81156736 33.66627476 -23.77700806 30.46621704 C-23.75902432 28.32464902 -23.74938095 26.18299449 -23.74813843 24.04135132 C-23.74497971 20.99047022 -23.71127017 17.94122389 -23.671875 14.890625 C-23.67896988 13.96758072 -23.68606476 13.04453644 -23.69337463 12.09352112 C-23.60678965 7.56063131 -23.48280589 5.6167243 -20.60766602 1.9440918 C-14.35142956 -2.7201167 -7.0662064 -2.80211633 0 0 Z " fill="#000000" transform="translate(323,99)"/>
<path d="M0 0 C1.31613281 -0.02578125 2.63226563 -0.0515625 3.98828125 -0.078125 C8.82763776 0.35113154 11.3071481 1.8696481 14.6875 5.25 C16.21903804 9.11133226 15.64327149 13.19285309 15.375 17.25 C15.33955078 17.9615625 15.30410156 18.673125 15.26757812 19.40625 C14.83285943 26.36174912 14.83285943 26.36174912 12.6875 29.25 C9.20295572 31.82659964 5.52207872 31.54989647 1.3125 31.5625 C0.02601563 31.57925781 -1.26046875 31.59601563 -2.5859375 31.61328125 C-6.53755256 31.22806091 -8.9570492 30.33321794 -12.3125 28.25 C-14.18881321 24.49737357 -13.58370023 20.00497651 -13.625 15.875 C-13.65400391 14.9159375 -13.68300781 13.956875 -13.71289062 12.96875 C-13.77699356 5.88784065 -13.77699356 5.88784065 -11.41796875 2.6484375 C-7.57858988 0.09834912 -4.50416132 0.03435013 0 0 Z " fill="#000000" transform="translate(313.3125,57.75)"/>
<path d="" fill="#FFFFFF" transform="translate(0,0)"/>
<path d="" fill="#FFFFFF" transform="translate(0,0)"/>
<path d="" fill="#FFFFFF" transform="translate(0,0)"/>
<path d="" fill="#FFFFFF" transform="translate(0,0)"/>
<path d="" fill="#FFFFFF" transform="translate(0,0)"/>
<path d="" fill="#FFFFFF" transform="translate(0,0)"/>
<path d="" fill="#FFFFFF" transform="translate(0,0)"/>
<path d="" fill="#FFFFFF" transform="translate(0,0)"/>
<path d="" fill="#FFFFFF" transform="translate(0,0)"/>
<path d="" fill="#FFFFFF" transform="translate(0,0)"/>
<path d="" fill="#FFFFFF" transform="translate(0,0)"/>
<path d="" fill="#FFFFFF" transform="translate(0,0)"/>
<path d="" fill="#FFFFFF" transform="translate(0,0)"/>
<path d="" fill="#FFFFFF" transform="translate(0,0)"/>
<path d="" fill="#FFFFFF" transform="translate(0,0)"/>
<path d="" fill="#FFFFFF" transform="translate(0,0)"/>
<path d="" fill="#FFFFFF" transform="translate(0,0)"/>
<path d="" fill="#FFFFFF" transform="translate(0,0)"/>
<path d="" fill="#FFFFFF" transform="translate(0,0)"/>
<path d="" fill="#FFFFFF" transform="translate(0,0)"/>
<path d="" fill="#FFFFFF" transform="translate(0,0)"/>
<path d="" fill="#FFFFFF" transform="translate(0,0)"/>
<path d="" fill="#FFFFFF" transform="translate(0,0)"/>
<path d="" fill="#FFFFFF" transform="translate(0,0)"/>
<path d="" fill="#FFFFFF" transform="translate(0,0)"/>
<path d="" fill="#FFFFFF" transform="translate(0,0)"/>
<path d="" fill="#FFFFFF" transform="translate(0,0)"/>
<path d="" fill="#FFFFFF" transform="translate(0,0)"/>
<path d="" fill="#FFFFFF" transform="translate(0,0)"/>
<path d="" fill="#FFFFFF" transform="translate(0,0)"/>
<path d="" fill="#FFFFFF" transform="translate(0,0)"/>
<path d="" fill="#FFFFFF" transform="translate(0,0)"/>
<path d="" fill="#FFFFFF" transform="translate(0,0)"/>
<path d="" fill="#FFFFFF" transform="translate(0,0)"/>
<path d="" fill="#FFFFFF" transform="translate(0,0)"/>
<path d="" fill="#FFFFFF" transform="translate(0,0)"/>
<path d="" fill="#FFFFFF" transform="translate(0,0)"/>
<path d="" fill="#FFFFFF" transform="translate(0,0)"/>
<path d="" fill="#FFFFFF" transform="translate(0,0)"/>
<path d="" fill="#FFFFFF" transform="translate(0,0)"/>
<path d="" fill="#FFFFFF" transform="translate(0,0)"/>
<path d="" fill="#FFFFFF" transform="translate(0,0)"/>
<path d="" fill="#FFFFFF" transform="translate(0,0)"/>
<path d="" fill="#FFFFFF" transform="translate(0,0)"/>
<path d="" fill="#FFFFFF" transform="translate(0,0)"/>
<path d="" fill="#FFFFFF" transform="translate(0,0)"/>
<path d="" fill="#FFFFFF" transform="translate(0,0)"/>
<path d="" fill="#FFFFFF" transform="translate(0,0)"/>
<path d="" fill="#FFFFFF" transform="translate(0,0)"/>
<path d="" fill="#FFFFFF" transform="translate(0,0)"/>
<path d="" fill="#FFFFFF" transform="translate(0,0)"/>
<path d="" fill="#FFFFFF" transform="translate(0,0)"/>
<path d="" fill="#FFFFFF" transform="translate(0,0)"/>
<path d="" fill="#FFFFFF" transform="translate(0,0)"/>
<path d="" fill="#FFFFFF" transform="translate(0,0)"/>
<path d="" fill="#FFFFFF" transform="translate(0,0)"/>
<path d="" fill="#FFFFFF" transform="translate(0,0)"/>
<path d="" fill="#FFFFFF" transform="translate(0,0)"/>
<path d="" fill="#FFFFFF" transform="translate(0,0)"/>
<path d="" fill="#FFFFFF" transform="translate(0,0)"/>
<path d="" fill="#FFFFFF" transform="translate(0,0)"/>
<path d="" fill="#FFFFFF" transform="translate(0,0)"/>
<path d="" fill="#FFFFFF" transform="translate(0,0)"/>
<path d="" fill="#FFFFFF" transform="translate(0,0)"/>
<path d="" fill="#FFFFFF" transform="translate(0,0)"/>
</svg>
